<svg id="Layer_1" data-name="Layer 1" xmlns="http://www.w3.org/2000/svg" viewBox="0 0 582.56 643.25"><path d="M118.06,253.57V446.43a66.86,66.86,0,0,0,33.44,57.92l167,96.43a66.87,66.87,0,0,0,66.88,0l167-96.43a66.87,66.87,0,0,0,33.43-57.92V253.57a66.87,66.87,0,0,0-33.43-57.92l-167-96.43a66.87,66.87,0,0,0-66.88,0l-167,96.43A66.86,66.86,0,0,0,118.06,253.57Z" transform="translate(-60.66 -28.37)" style="fill:#faae1c"/><path d="M80.71,253.57V444.39a143.1,143.1,0,0,0,2.15,22.39c1.39,8.86,4.86,16.92,8.46,25.1,3.7,8.38,9.09,15.41,14.82,22.54,7.25,9,16.84,16.57,26.8,22.35q8.19,4.76,16.41,9.48l76.13,44,67.41,38.92c11.49,6.63,23.41,12.93,36.57,15.44,9.59,1.84,19.63,3.19,29.42,2.17s19.15-2.29,28.19-5.9a146.79,146.79,0,0,0,19.26-9l58.47-33.76,80.13-46.26,23.2-13.4c17.22-9.94,32.35-23.62,41.91-41.28a107.28,107.28,0,0,0,13.17-50.7c0-1.42,0-2.84,0-4.25V255.39a136.81,136.81,0,0,0-2.27-22.9c-1.52-9-5.14-17.45-8.94-25.71-3.69-8-9.13-14.93-14.68-21.77-8.62-10.62-20.19-18.23-31.93-25l-66.15-38.2L422.35,77.42q-8.76-5.06-17.51-10.11c-1.41-.81-2.83-1.6-4.29-2.33-8.7-4.32-18-8.23-27.7-9.83s-19-2.85-28.62-1.79a136.45,136.45,0,0,0-18.77,3c-6.34,1.62-12.32,4.32-18.3,6.92-6.25,2.71-12.07,6.36-18,9.76L258.41,90.79l-82.2,47.46-31.47,18.17c-4.89,2.82-9.91,5.5-14.67,8.54-14.62,9.34-27.37,22-35.84,37.27a107,107,0,0,0-13.52,51.34A38.42,38.42,0,0,0,91.65,280a28,28,0,0,0,12,7.72,28.14,28.14,0,0,0,14.39,3.22c9.66-.44,19.67-3.61,26.41-10.94s10.88-16.27,10.93-26.41a72.34,72.34,0,0,1,.61-8.95l-1.34,9.93a69.37,69.37,0,0,1,4.63-17l-3.76,8.92a69.45,69.45,0,0,1,8.81-15.08L158.51,239a69.78,69.78,0,0,1,11.94-11.92l-7.56,5.84c6.79-5.18,14.66-9.15,22-13.41l40.57-23.42,50.06-28.91,42.71-24.66c6.36-3.67,12.7-7.36,19.07-11a73,73,0,0,1,7.52-3.73l-8.92,3.76a70,70,0,0,1,17.41-4.69l-9.93,1.33a70.72,70.72,0,0,1,17.08,0l-9.93-1.33A70,70,0,0,1,368,131.51l-8.92-3.76c7.85,3.36,15.21,8.17,22.59,12.44l40.87,23.59,50.09,28.92,42.44,24.5c6.17,3.57,12.36,7.1,18.51,10.69a73.63,73.63,0,0,1,7.47,5l-7.56-5.84A69.78,69.78,0,0,1,545.41,239l-5.84-7.56a69.45,69.45,0,0,1,8.81,15.08l-3.76-8.92a69.37,69.37,0,0,1,4.63,17l-1.34-9.93c1.11,8.52.61,17.36.61,25.93V424.88c0,7.18,0,14.36,0,21.54a72.5,72.5,0,0,1-.61,9l1.34-9.93a69.37,69.37,0,0,1-4.63,17l3.76-8.92a69.45,69.45,0,0,1-8.81,15.08l5.84-7.56A69.78,69.78,0,0,1,533.47,473l7.56-5.84c-6.79,5.18-14.66,9.15-22,13.41l-40.56,23.42-50.07,28.91-42.71,24.66c-6.36,3.67-12.7,7.36-19.07,11a73,73,0,0,1-7.52,3.73l8.92-3.76a70,70,0,0,1-17.41,4.69l9.93-1.33a70.72,70.72,0,0,1-17.08,0l9.93,1.33a70,70,0,0,1-17.41-4.69l8.92,3.76c-7.85-3.36-15.21-8.17-22.59-12.44L281.4,536.22,231.31,507.3l-42.44-24.5c-6.17-3.57-12.36-7.1-18.51-10.69a73.63,73.63,0,0,1-7.47-5l7.56,5.84A69.78,69.78,0,0,1,158.51,461l5.84,7.56a69.45,69.45,0,0,1-8.81-15.08l3.76,8.92a69.37,69.37,0,0,1-4.63-17l1.34,9.93c-1.07-8.28-.61-16.86-.61-25.19v-152c0-8.08.08-16.17,0-24.25v-.36a38.53,38.53,0,0,0-10.93-26.41,28,28,0,0,0-12-7.72,28.16,28.16,0,0,0-14.39-3.22c-9.66.43-19.68,3.6-26.41,10.94S80.71,243.45,80.71,253.57Z" transform="translate(-60.66 -28.37)" style="fill:#faae1c"/><rect x="310.47" y="236.48" width="241.7" height="28" rx="13.69" style="fill:#fece75;stroke:#fece75;stroke-miterlimit:10;stroke-width:24.898845631045095px"/><rect x="32.74" y="236.48" width="229.25" height="28" rx="13.69" style="fill:#fece75;stroke:#fece75;stroke-miterlimit:10;stroke-width:24.898845631045095px"/><rect x="47.04" y="160.77" width="270.18" height="28" rx="13.69" style="fill:#fece75;stroke:#fece75;stroke-miterlimit:10;stroke-width:24.898845631045095px"/><rect x="365.5" y="160.77" width="150.59" height="28" rx="13.69" style="fill:#fece75;stroke:#fece75;stroke-miterlimit:10;stroke-width:24.898845631045095px"/><rect x="376.03" y="463.6" width="118.9" height="28" rx="13.69" style="fill:#fece75;stroke:#fece75;stroke-miterlimit:10;stroke-width:24.898845631045095px"/><rect x="38.6" y="463.6" width="291.34" height="28" rx="13.69" style="fill:#fece75;stroke:#fece75;stroke-miterlimit:10;stroke-width:24.898845631045095px"/><rect x="154.72" y="387.89" width="270.18" height="28" rx="13.69" style="fill:#fece75;stroke:#fece75;stroke-miterlimit:10;stroke-width:24.898845631045095px"/><rect x="468.5" y="387.89" width="92.15" height="28" rx="13.69" style="fill:#fece75;stroke:#fece75;stroke-miterlimit:10;stroke-width:24.898845631045095px"/><rect x="18.04" y="387.89" width="94.96" height="28" rx="13.69" style="fill:#fece75;stroke:#fece75;stroke-miterlimit:10;stroke-width:24.898845631045095px"/><rect x="152.14" y="539.31" width="257.74" height="28" rx="13.69" style="fill:#fece75;stroke:#fece75;stroke-miterlimit:10;stroke-width:24.898845631045095px"/><rect x="265.97" y="85.06" width="150.59" height="28" rx="13.69" style="fill:#fece75;stroke:#fece75;stroke-miterlimit:10;stroke-width:24.898845631045095px"/><rect x="138.83" y="85.06" width="80.06" height="28" rx="13.69" style="fill:#fece75;stroke:#fece75;stroke-miterlimit:10;stroke-width:24.898845631045095px"/><rect x="406.62" y="312.18" width="150.59" height="28" rx="13.69" style="fill:#fece75;stroke:#fece75;stroke-miterlimit:10;stroke-width:24.898845631045095px"/><rect x="230.61" y="312.18" width="128.93" height="28" rx="13.69" style="fill:#fece75;stroke:#fece75;stroke-miterlimit:10;stroke-width:24.898845631045095px"/><rect x="33.93" y="312.18" width="150.59" height="28" rx="13.69" style="fill:#fece75;stroke:#fece75;stroke-miterlimit:10;stroke-width:24.898845631045095px"/><circle cx="301.33" cy="174.5" r="15.63" style="fill:#fee2ac"/><circle cx="244.65" cy="326.19" r="15.63" style="fill:#fee2ac"/><circle cx="172.47" cy="400.97" r="15.63" style="fill:#fee2ac"/><circle cx="484.3" cy="400.64" r="15.63" style="fill:#fee2ac"/><circle cx="170.81" cy="326.34" r="15.63" style="fill:#fee2ac"/><circle cx="97.7" cy="401.43" r="15.63" style="fill:#fee2ac"/><circle cx="325.77" cy="250.45" r="15.63" style="fill:#fee2ac"/><circle cx="421.12" cy="326.34" r="15.63" style="fill:#fee2ac"/><circle cx="248.68" cy="251.25" r="15.63" style="fill:#fee2ac"/><circle cx="313.45" cy="478.91" r="15.63" style="fill:#fee2ac"/><circle cx="344.84" cy="326.34" r="15.63" style="fill:#fee2ac"/><circle cx="409.6" cy="401.83" r="15.63" style="fill:#fee2ac"/><circle cx="483.9" cy="475.34" r="15.63" style="fill:#fee2ac"/><circle cx="390.13" cy="476.53" r="15.63" style="fill:#fee2ac"/><circle cx="381.79" cy="173.77" r="15.63" style="fill:#fee2ac"/><circle cx="506.15" cy="174.96" r="15.63" style="fill:#fee2ac"/><circle cx="280.87" cy="99.07" r="15.63" style="fill:#fee2ac"/><circle cx="206.57" cy="101.06" r="15.63" style="fill:#fee2ac"/><path d="M60.71,236.63V447.1c0,6-.13,12,0,18a96.27,96.27,0,0,0,47.63,80.6q9.24,5.36,18.5,10.68l38.83,22.42,48.14,27.79,46.43,26.81L294,652.83c9.87,5.7,19.41,11.23,30.46,14.71a69.91,69.91,0,0,0,11.33,2.51c6,.86,12,1.72,18.05,1.55A90.92,90.92,0,0,0,383,666.32a126.81,126.81,0,0,0,18.74-8.76l24.15-13.94,41.94-24.22,48.73-28.13,44.48-25.68,29.22-16.87,5.44-3.14a98.39,98.39,0,0,0,32.76-31.47c10.86-16.61,14.73-36.05,14.73-55.58V240.45c0-20.58-4.81-41.53-17.34-58.27a113.81,113.81,0,0,0-10.64-12.84,118,118,0,0,0-13-10.64,73.52,73.52,0,0,0-6.78-4.41l-6.24-3.6-30.34-17.52-45-26L465.27,79.11,424,55.29l-22.86-13.2a105.29,105.29,0,0,0-23-10,110.6,110.6,0,0,0-17.89-3.16,68.37,68.37,0,0,0-11.53-.44c-9.83.47-20,2.09-29.14,5.74C309.89,38,301.44,42.86,292.5,48L257.73,68.09,210.88,95.14,163,122.79l-37.92,21.89c-5.65,3.26-11.3,6.49-16.93,9.78a96.22,96.22,0,0,0-47.43,82.17,28.82,28.82,0,0,0,8.2,19.81c4.86,4.85,12.83,8.51,19.81,8.2,15.26-.68,27.91-12.31,28-28a71.84,71.84,0,0,1,.65-9.27l-1,7.44A70.38,70.38,0,0,1,121,218l-2.82,6.69a70.09,70.09,0,0,1,8.73-14.91l-4.38,5.67a70.05,70.05,0,0,1,11.72-11.75l-5.67,4.38c7.67-5.92,16.68-10.38,25-15.21l47.45-27.4,58.74-33.91,50.19-29c7.52-4.34,15-8.73,22.58-13a76.54,76.54,0,0,1,7.7-3.82l-6.69,2.83a69.88,69.88,0,0,1,17-4.6l-7.45,1a70.35,70.35,0,0,1,17.52,0l-7.45-1a69.88,69.88,0,0,1,17,4.6l-6.69-2.83c8.89,3.8,17.23,9.32,25.58,14.14L437,127.48l58.76,33.92,49.88,28.8c7.33,4.23,14.67,8.42,22,12.68a73.2,73.2,0,0,1,7.73,5.22l-5.67-4.38a70.05,70.05,0,0,1,11.72,11.75L577,209.8a70.09,70.09,0,0,1,8.73,14.91L582.91,218a70.38,70.38,0,0,1,4.64,16.78l-1-7.44c1.29,9.65.65,19.75.65,29.46v181c0,8.52,0,17,0,25.55a72.3,72.3,0,0,1-.65,9.3l1-7.44A70.38,70.38,0,0,1,582.91,482l2.82-6.69A70.09,70.09,0,0,1,577,490.2l4.38-5.67a70.05,70.05,0,0,1-11.72,11.75l5.67-4.38c-7.67,5.92-16.68,10.38-25.05,15.21l-47.45,27.4-58.74,33.91-50.19,29c-7.52,4.34-15,8.73-22.58,13a76.54,76.54,0,0,1-7.7,3.82l6.69-2.83a69.88,69.88,0,0,1-17,4.6l7.45-1a70.35,70.35,0,0,1-17.52,0l7.45,1a69.88,69.88,0,0,1-17-4.6l6.69,2.83c-8.89-3.8-17.23-9.32-25.58-14.14l-47.79-27.6L208.17,538.6l-49.88-28.8c-7.33-4.23-14.67-8.42-22-12.68a73.2,73.2,0,0,1-7.73-5.22l5.67,4.38a70.05,70.05,0,0,1-11.72-11.75l4.38,5.67a70.09,70.09,0,0,1-8.73-14.91L121,482a70.38,70.38,0,0,1-4.64-16.78l1,7.44c-1.26-9.43-.65-19.29-.65-28.79V265.49c0-9.48.14-19,0-28.44v-.42a28.91,28.91,0,0,0-8.2-19.81c-4.86-4.86-12.83-8.51-19.81-8.2C73.54,209.3,60.71,220.93,60.71,236.63Z" transform="translate(-60.66 -28.37)" style="fill:#faae1c"/></svg>