<svg id="Layer_1" data-name="Layer 1" xmlns="http://www.w3.org/2000/svg" viewBox="0 0 364 297"><rect x="50.89" y="67.92" width="183.24" height="124" transform="translate(272.43 -12.6) rotate(90)" style="fill:#f5f5f5"/><rect x="80.52" y="38.3" width="124" height="32.43" style="fill:#2a2c3f"/><rect x="80.52" y="197.11" width="124" height="24.43" style="fill:#2a2c3f"/><circle cx="100.62" cy="55.02" r="8.3" style="fill:#99a7ff"/><line x1="127.85" y1="176.43" x2="180.83" y2="176.43" style="fill:none;stroke:#faae1a;stroke-miterlimit:10;stroke-width:3px"/><line x1="103.36" y1="92.68" x2="185.89" y2="92.68" style="fill:none;stroke:#8f93a5;stroke-miterlimit:10;stroke-width:3px"/><line x1="103.36" y1="105.29" x2="185.89" y2="105.29" style="fill:none;stroke:#8f93a5;stroke-miterlimit:10;stroke-width:3px"/><line x1="103.36" y1="117.91" x2="185.89" y2="117.91" style="fill:none;stroke:#8f93a5;stroke-miterlimit:10;stroke-width:3px"/><line x1="103.36" y1="130.52" x2="185.89" y2="130.52" style="fill:none;stroke:#8f93a5;stroke-miterlimit:10;stroke-width:3px"/><line x1="103.36" y1="143.13" x2="185.89" y2="143.13" style="fill:none;stroke:#8f93a5;stroke-miterlimit:10;stroke-width:3px"/><line x1="103.36" y1="155.74" x2="185.89" y2="155.74" style="fill:none;stroke:#8f93a5;stroke-miterlimit:10;stroke-width:3px"/><rect x="190.36" y="166.17" width="100.09" height="55.37" style="fill:#2a2c3f;stroke:#8f93a5;stroke-miterlimit:10;stroke-width:3px"/><circle cx="211.81" cy="193.86" r="15.32" style="fill:#99a7ff"/><line x1="231.45" y1="186.64" x2="284.43" y2="186.64" style="fill:none;stroke:#faae1a;stroke-miterlimit:10;stroke-width:3px"/><line x1="245.85" y1="197.11" x2="284.17" y2="197.11" style="fill:none;stroke:#8f93a5;stroke-miterlimit:10;stroke-width:3px"/></svg>