<svg id="Layer_1" data-name="Layer 1" xmlns="http://www.w3.org/2000/svg" viewBox="0 0 364 297"><circle cx="182" cy="148.5" r="117.19" style="fill:#f5f5f5;stroke:#2a2c3f;stroke-miterlimit:10;stroke-width:8.476634415076651px"/><path d="M260.12,170.05l-5.56,6.72L241.12,193,224.93,212.6l-14.07,17c-2.26,2.74-4.66,5.42-6.81,8.25l-.1.12c-1,1.23.74,3,1.76,1.77l5.56-6.73,13.44-16.25L240.9,197.2l14.07-17c2.26-2.74,4.66-5.42,6.81-8.24a1.13,1.13,0,0,0,.1-.13c1-1.23-.74-3-1.76-1.76Z" style="fill:#8f93a5"/><path d="M114.77,108l-7.13,23.32L96.35,168.16l-2.6,8.51c-.47,1.54,1.94,2.2,2.41.66L103.3,154l11.28-36.88,2.6-8.51c.48-1.54-1.94-2.2-2.41-.66Z" style="fill:#8f93a5"/><path d="M178.39,51.91l9.18,5.91,22,14.13L236.15,89.1l22.94,14.77c3.7,2.38,7.33,5,11.16,7.19l.16.1c1.36.87,2.61-1.29,1.26-2.16l-9.18-5.91L240.55,89,213.91,71.81,191,57c-3.7-2.38-7.34-5-11.17-7.18l-.16-.11c-1.35-.87-2.61,1.29-1.26,2.16Z" style="fill:#8f93a5"/><path d="M270,109.45l-6.52,12.9-15.6,30.84L229,190.48,212.63,222.8c-2.63,5.2-5.36,10.36-7.89,15.6l-.12.22c-.72,1.44,1.43,2.7,2.16,1.26L213.3,227l15.61-30.85,18.86-37.29,16.35-32.31c2.63-5.2,5.35-10.36,7.89-15.61,0-.07.07-.15.11-.22.73-1.43-1.43-2.7-2.16-1.26Z" style="fill:#8f93a5"/><path d="M271,108.83l-15.46-.18-37.11-.43-44.63-.51-38.79-.45c-6.25-.07-12.56-.38-18.82-.21H116a1.25,1.25,0,0,0,0,2.5l15.46.18,37.11.43,44.63.51,38.79.45c6.26.07,12.56.38,18.82.22a2.09,2.09,0,0,1,.25,0,1.25,1.25,0,0,0,0-2.5Z" style="fill:#8f93a5"/><path d="M116.86,109.18l21.35-19.46,34-31,7.74-7c1.19-1.09-.59-2.85-1.77-1.77L156.79,69.4l-34,31-7.74,7c-1.19,1.08.59,2.85,1.77,1.77Z" style="fill:#8f93a5"/><path d="M177.94,50.2l-8.39,12.59L149.48,92.92l-24.27,36.43-21,31.56-6.85,10.28c-1.1,1.65-2.29,3.26-3.31,5l-.14.22c-.9,1.34,1.27,2.59,2.16,1.26L104.43,165l20.07-30.13,24.27-36.43,21-31.56,6.85-10.28c1.1-1.65,2.29-3.26,3.31-5l.14-.22c.9-1.34-1.27-2.59-2.16-1.26Z" style="fill:#8f93a5"/><path d="M177.94,51.46l8.21,12,19.54,28.64,23.63,34.62,20.55,30.09c3.3,4.84,6.53,9.74,9.91,14.53.05.06.09.13.14.2.9,1.32,3.07.07,2.16-1.26l-8.2-12-19.55-28.64L210.7,95l-20.54-30.1c-3.31-4.84-6.54-9.73-9.92-14.52l-.14-.21c-.9-1.32-3.07-.07-2.16,1.26Z" style="fill:#8f93a5"/><circle cx="179.02" cy="51.4" r="16.47" style="fill:#fdce74"/><path d="M114.9,108.92l8.92,13,21.42,31.27L171.16,191l22.41,32.71c3.63,5.3,7.2,10.66,10.9,15.91l.15.22c.91,1.32,3.07.08,2.16-1.26l-8.92-13-21.42-31.26-25.92-37.83L128.11,123.8c-3.63-5.31-7.19-10.66-10.9-15.91l-.15-.23c-.91-1.32-3.07-.07-2.16,1.26Z" style="fill:#8f93a5"/><path d="M95,178.25l16.57-.61,39.77-1.45,47.83-1.75,41.53-1.52c6.68-.24,13.38-.33,20.06-.73H261c1.6-.06,1.61-2.56,0-2.5l-16.57.61-39.77,1.45-47.83,1.75L115.3,175c-6.68.25-13.39.34-20.06.74H95c-1.61.06-1.61,2.56,0,2.5Z" style="fill:#8f93a5"/><circle cx="94.64" cy="175.47" r="19.15" style="fill:#fdce74"/><circle cx="115.66" cy="107.98" r="13.28" style="fill:#fdce74"/><circle cx="261" cy="170.93" r="14.3" style="fill:#fdce74"/><circle cx="271.04" cy="110.08" r="15.06" style="fill:#fdce74"/><circle cx="204.52" cy="238.56" r="14.3" style="fill:#fdce74"/><rect x="142.04" y="70.69" width="79.91" height="155.63" rx="2.67" transform="translate(364 297) rotate(180)" style="fill:#2a2c3f"/><rect x="147.79" y="79.93" width="68.43" height="137.14" transform="translate(364 297) rotate(180)" style="fill:#f5f5f5"/><rect x="152.89" y="84.81" width="58.21" height="58.21" style="fill:#99a7ff"/><rect x="157.32" y="119.54" width="18.72" height="18.72" style="fill:#faae1a"/><rect x="185.57" y="152.22" width="25.53" height="57.87" style="fill:#faae1a"/><circle cx="166.68" cy="193.92" r="12.34" style="fill:#fdce74"/></svg>