<svg id="Layer_1" data-name="Layer 1" xmlns="http://www.w3.org/2000/svg" viewBox="0 0 364 297"><rect x="71.06" y="60.88" width="234.38" height="132.51" rx="4.21" style="fill:#2a2c3f"/><rect x="77.78" y="69.7" width="220.94" height="116.77" style="fill:#f5f5f5"/><rect x="138.21" y="211.45" width="100.09" height="7.83" rx="3.91" style="fill:#2a2c3f"/><rect x="77.78" y="79.91" width="220.94" height="10.21" style="fill:#8f93a5"/><rect x="85.63" y="72.77" width="40.51" height="4.77" style="fill:#8f93a5"/><rect x="116.19" y="90.13" width="146.38" height="96.34" style="fill:#ffe2ac"/><path d="M189.94,151.29l-2.18.28a1.52,1.52,0,0,1-1.87-1.35q-.9-4.65-1.81-9.31a1.49,1.49,0,0,1,1.09-1.78l1.47-.36a5.74,5.74,0,0,0,4.63-4.78,5.83,5.83,0,0,0-2.42-6.4c-.36-.27-.72-.53-1.07-.81a1.47,1.47,0,0,1-.36-2.06q2.7-4,5.43-8a1.48,1.48,0,0,1,2-.44c.49.29,1,.62,1.47.9a5.63,5.63,0,0,0,6.19-.1,8.61,8.61,0,0,0,1.7-1.36,5.64,5.64,0,0,0,1.38-4.87c-.07-.47-.13-.94-.2-1.41a1.49,1.49,0,0,1,1.28-1.8l7.91-1.53,1.44-.28a1.49,1.49,0,0,1,1.83,1.12c.12.48.23,1,.34,1.43a6.3,6.3,0,0,0,11.19,2.19c.26-.35.52-.69.79-1a1.46,1.46,0,0,1,2.08-.38c2.69,1.8,5.36,3.61,8,5.43a1.46,1.46,0,0,1,.44,2c-.27.48-.58.93-.86,1.4a5.76,5.76,0,0,0,.11,6.41,6,6,0,0,0,4,2.94,8.23,8.23,0,0,0,2.8-.07l.79-.11a1.49,1.49,0,0,1,1.78,1.26q.74,3.74,1.45,7.49l.36,1.85A1.49,1.49,0,0,1,250,139.6c-.45.12-.89.23-1.34.33a5.75,5.75,0,0,0-4.65,4.73,5.86,5.86,0,0,0,2.39,6.45c.38.27.75.55,1.11.83a1.46,1.46,0,0,1,.35,2q-2.7,4-5.45,8.07a1.45,1.45,0,0,1-2,.42c-.47-.27-.92-.57-1.39-.85a5.77,5.77,0,0,0-6.42.12,6,6,0,0,0-2.93,4,8.22,8.22,0,0,0,.08,2.8c0,.26.07.53.1.79a1.48,1.48,0,0,1-1.26,1.77c-2.2.44-4.39.86-6.59,1.28l-2.8.55a1.5,1.5,0,0,1-1.8-1.12c-.13-.47-.24-.94-.35-1.42a6.3,6.3,0,0,0-11.18-2.23c-.26.36-.53.72-.81,1.07a1.47,1.47,0,0,1-2.05.37q-4-2.7-8.07-5.45a1.45,1.45,0,0,1-.43-2c.25-.45.54-.88.8-1.32a5.81,5.81,0,0,0-.1-6.6A6,6,0,0,0,189.94,151.29Zm10.51-11.92a17.2,17.2,0,1,0,17.19-17.22A17.23,17.23,0,0,0,200.45,139.37Z" style="fill:#8f93a5"/><path d="M129.28,133.69l-1.89-.24a1.31,1.31,0,0,1-1.24-1.58l.63-8.46a1.35,1.35,0,0,1,1.32-1.3c.43,0,.87,0,1.3,0a5.07,5.07,0,0,0,5-3.12,5.34,5.34,0,0,0-.54-6.08c-.25-.31-.48-.62-.71-.94a1.35,1.35,0,0,1,.17-1.86l6.37-5.76a1.23,1.23,0,0,1,1.8.08c.35.36.67.74,1,1.1a4.72,4.72,0,0,0,5.18,1.28,7.35,7.35,0,0,0,1.73-.8,5.17,5.17,0,0,0,2.27-3.92c.05-.42.11-.84.16-1.26a1.33,1.33,0,0,1,1.48-1.28l6.94.42,1.27.08a1.29,1.29,0,0,1,1.26,1.38c0,.43,0,.87,0,1.31a5,5,0,0,0,2.89,5,4.93,4.93,0,0,0,5.92-.68c.29-.25.59-.49.89-.73a1.24,1.24,0,0,1,1.82.14c1.83,2.15,3.64,4.31,5.45,6.48a1.34,1.34,0,0,1-.1,1.83c-.33.35-.69.68-1,1a5.33,5.33,0,0,0-1.38,5.58,5.14,5.14,0,0,0,2.65,3.43,6.58,6.58,0,0,0,2.35.56l.68.08a1.29,1.29,0,0,1,1.2,1.48c-.17,2.27-.35,4.54-.52,6.81l-.12,1.69a1.35,1.35,0,0,1-1.41,1.36h-1.19a5,5,0,0,0-4.95,3.07,5.32,5.32,0,0,0,.5,6.11c.25.32.5.64.73,1a1.34,1.34,0,0,1-.17,1.83c-2.12,1.94-4.26,3.87-6.39,5.79a1.24,1.24,0,0,1-1.78-.08c-.33-.34-.64-.7-1-1a4.8,4.8,0,0,0-5.37-1.32,5.33,5.33,0,0,0-3.36,2.82,7.44,7.44,0,0,0-.58,2.44c0,.24-.06.47-.1.71a1.33,1.33,0,0,1-1.46,1.26l-5.78-.35-2.45-.15a1.29,1.29,0,0,1-1.25-1.36c0-.44,0-.87,0-1.31a5.06,5.06,0,0,0-2.91-5.08,4.93,4.93,0,0,0-5.89.67c-.3.26-.61.51-.92.75a1.22,1.22,0,0,1-1.79-.13c-1.83-2.16-3.66-4.33-5.47-6.5a1.34,1.34,0,0,1,.09-1.81c.32-.34.66-.65,1-1a5.4,5.4,0,0,0,1.43-5.74A5.13,5.13,0,0,0,129.28,133.69Zm11.49-8c-2.17,8.21,2.48,16.59,10.36,18.69s16.11-2.88,18.29-11.1-2.48-16.62-10.38-18.71S142.94,117.48,140.77,125.69Z" style="fill:#8f93a5"/></svg>