<svg id="Layer_1" data-name="Layer 1" xmlns="http://www.w3.org/2000/svg" viewBox="0 0 364 297"><circle cx="182" cy="148.5" r="96.78" style="fill:#f5f5f5;stroke:#2a2c3f;stroke-miterlimit:10;stroke-width:7px"/><circle cx="182" cy="148.5" r="72.78" style="fill:#8f93a5;stroke:#2a2c3f;stroke-miterlimit:10;stroke-width:5px"/><path d="M151.9,197.37a52.49,52.49,0,0,0,86.25-35.11Z" style="fill:#99a7ff"/><path d="M179.13,86.85a53,53,0,0,0-53.71,48.07l87.11-35.47A52.77,52.77,0,0,0,179.13,86.85Z" style="fill:#99a7ff"/><path d="M241.13,149.54c0,1.51-.12,3-.26,4.49l39.75-16.19A98.71,98.71,0,0,0,260,87.24l-39.73,16.18A59,59,0,0,1,241.13,149.54Z" style="fill:#faae1a"/><path d="M122.87,147.46c0-1.51.12-3,.26-4.49L83.38,159.16A98.71,98.71,0,0,0,104,209.76l39.73-16.18A59,59,0,0,1,122.87,147.46Z" style="fill:#faae1a"/><path d="M241.13,149.54a59,59,0,0,0-20.85-46.12L123.13,143c-.14,1.49-.24,3-.26,4.49a59,59,0,0,0,20.85,46.12L240.87,154C241,152.54,241.11,151.05,241.13,149.54Z" style="fill:#faae1a"/><circle cx="182" cy="148.5" r="96.78" style="fill:none;stroke:#2a2c3f;stroke-miterlimit:10;stroke-width:7px"/><rect x="95.86" y="137.76" width="172.29" height="21.48" transform="translate(-43.08 81.29) rotate(-22.59)" style="fill:#fdce74"/></svg>