<svg id="Layer_1" data-name="Layer 1" xmlns="http://www.w3.org/2000/svg" viewBox="0 0 1125 801.96"><rect width="1125" height="801.96" style="fill:#2a2c3f"/><text transform="translate(164.48 572.68)" style="font-size:123.93891906738281px;fill:#fee2ac;font-family:Montserrat-Light, Montserrat;font-weight:300;letter-spacing:0.03874293763922043em">Ho<tspan x="187.33" y="0" style="letter-spacing:0.039735740190072935em">n</tspan><tspan x="275.66" y="0" style="letter-spacing:0.028747937355439443em">e</tspan><tspan x="353.22" y="0" style="letter-spacing:0.023740587981893664em">y</tspan><tspan x="421.6" y="0" style="letter-spacing:0.029752558984278286em">c</tspan><tspan x="494.07" y="0">om</tspan><tspan x="712.39" y="0" style="letter-spacing:-0.000007879385324226242em">b</tspan></text><path d="M418.18,184.65v120a41.6,41.6,0,0,0,20.81,36l103.92,60a41.58,41.58,0,0,0,41.61,0l103.93-60a41.6,41.6,0,0,0,20.81-36v-120a41.6,41.6,0,0,0-20.81-36l-103.93-60a41.62,41.62,0,0,0-41.61,0L439,148.62A41.6,41.6,0,0,0,418.18,184.65Z" transform="translate(0 -0.53)" style="fill:#fbae17"/><path d="M394.94,184.65V303.39a89.62,89.62,0,0,0,1.34,13.93c.87,5.51,3,10.53,5.27,15.62s5.65,9.58,9.22,14a60.12,60.12,0,0,0,16.67,13.9q5.1,3,10.21,5.9L485,394.11l42,24.22c7.14,4.12,14.56,8,22.75,9.61,6,1.14,12.21,2,18.3,1.35s11.92-1.43,17.55-3.67a91.38,91.38,0,0,0,12-5.61l36.38-21,49.86-28.79,14.43-8.33c10.72-6.19,20.13-14.7,26.08-25.69a66.91,66.91,0,0,0,8.2-31.55V185.79a85.39,85.39,0,0,0-1.42-14.25c-.94-5.61-3.2-10.86-5.56-16-2.3-5-5.68-9.29-9.14-13.54-5.36-6.61-12.56-11.35-19.86-15.56l-41.16-23.77L607.52,75.05l-10.9-6.29c-.88-.5-1.76-1-2.67-1.45-5.41-2.68-11.22-5.12-17.23-6.12s-11.82-1.77-17.81-1.11a84.46,84.46,0,0,0-11.68,1.85,77.44,77.44,0,0,0-11.39,4.3,111.74,111.74,0,0,0-11.17,6.08L505.51,83.37,454.36,112.9l-19.58,11.31c-3,1.75-6.16,3.42-9.12,5.31a66.07,66.07,0,0,0-22.31,23.19,66.79,66.79,0,0,0-8.41,31.94,24,24,0,0,0,6.81,16.44,25.88,25.88,0,0,0,16.43,6.8c6-.27,12.24-2.24,16.43-6.8a24.3,24.3,0,0,0,6.81-16.44,45.17,45.17,0,0,1,.37-5.57l-.83,6.18a43.37,43.37,0,0,1,2.88-10.56l-2.34,5.55a43.24,43.24,0,0,1,5.49-9.38l-3.64,4.7a43.78,43.78,0,0,1,7.43-7.41l-4.7,3.63c4.22-3.22,9.12-5.69,13.71-8.35L485,148.87l31.15-18,26.58-15.34c4-2.28,7.9-4.58,11.86-6.85a46.25,46.25,0,0,1,4.68-2.32l-5.55,2.34a43.3,43.3,0,0,1,10.83-2.92l-6.17.83a43.88,43.88,0,0,1,10.62,0l-6.18-.83a43.26,43.26,0,0,1,10.84,2.92l-5.55-2.34c4.88,2.09,9.46,5.08,14.05,7.74l25.43,14.68,31.17,18L665.19,162c3.85,2.21,7.7,4.41,11.53,6.65a46.34,46.34,0,0,1,4.64,3.11l-4.71-3.63a43.47,43.47,0,0,1,7.44,7.41l-3.64-4.7a43.65,43.65,0,0,1,5.49,9.38l-2.35-5.55a42.93,42.93,0,0,1,2.88,10.56l-.83-6.18c.69,5.3.38,10.81.38,16.14v96c0,4.47,0,8.94,0,13.41a45.35,45.35,0,0,1-.38,5.58l.83-6.18a42.93,42.93,0,0,1-2.88,10.56l2.35-5.55a43.65,43.65,0,0,1-5.49,9.38l3.64-4.7a43.47,43.47,0,0,1-7.44,7.41l4.71-3.63c-4.23,3.22-9.12,5.69-13.71,8.34l-25.24,14.58-31.16,18-26.57,15.35c-4,2.28-7.9,4.58-11.87,6.85a45.08,45.08,0,0,1-4.67,2.32l5.55-2.34a43.26,43.26,0,0,1-10.84,2.92l6.18-.83a43.88,43.88,0,0,1-10.62,0l6.17.83a43.3,43.3,0,0,1-10.83-2.92l5.55,2.34c-4.88-2.09-9.46-5.09-14-7.74l-25.44-14.68-31.16-18-26.41-15.25q-5.76-3.31-11.52-6.65a45.22,45.22,0,0,1-4.64-3.11l4.7,3.63a43.78,43.78,0,0,1-7.43-7.41l3.64,4.7a43.24,43.24,0,0,1-5.49-9.38l2.34,5.55A43.37,43.37,0,0,1,441,304.05l.83,6.18c-.66-5.16-.37-10.5-.37-15.68V200c0-5,.05-10.06,0-15.09v-.23a24,24,0,0,0-6.81-16.43,17.23,17.23,0,0,0-7.48-4.8,17.43,17.43,0,0,0-8.95-2c-6,.27-12.24,2.25-16.43,6.81A24.18,24.18,0,0,0,394.94,184.65Z" transform="translate(0 -0.53)" style="fill:#fbae17"/><rect x="575.64" y="191.15" width="150.39" height="17.42" rx="8.52" style="fill:#fdce74;stroke:#fdce74;stroke-miterlimit:10;stroke-width:15.492364627528426px"/><rect x="402.84" y="191.15" width="142.65" height="17.42" rx="8.52" style="fill:#fdce74;stroke:#fdce74;stroke-miterlimit:10;stroke-width:15.492364627528426px"/><rect x="411.74" y="144.04" width="168.11" height="17.42" rx="8.52" style="fill:#fdce74;stroke:#fdce74;stroke-miterlimit:10;stroke-width:15.492364627528426px"/><rect x="609.88" y="144.04" width="93.7" height="17.42" rx="8.52" style="fill:#fdce74;stroke:#fdce74;stroke-miterlimit:10;stroke-width:15.492364627528426px"/><rect x="616.43" y="332.47" width="73.98" height="17.42" rx="8.52" style="fill:#fdce74;stroke:#fdce74;stroke-miterlimit:10;stroke-width:15.492364627528426px"/><rect x="406.48" y="332.47" width="181.27" height="17.42" rx="8.52" style="fill:#fdce74;stroke:#fdce74;stroke-miterlimit:10;stroke-width:15.492364627528426px"/><rect x="478.73" y="285.36" width="168.11" height="17.42" rx="8.52" style="fill:#fdce74;stroke:#fdce74;stroke-miterlimit:10;stroke-width:15.492364627528426px"/><rect x="673.97" y="285.36" width="57.33" height="17.42" rx="8.52" style="fill:#fdce74;stroke:#fdce74;stroke-miterlimit:10;stroke-width:15.492364627528426px"/><rect x="393.69" y="285.36" width="59.09" height="17.42" rx="8.52" style="fill:#fdce74;stroke:#fdce74;stroke-miterlimit:10;stroke-width:15.492364627528426px"/><rect x="485.76" y="379.57" width="151.74" height="17.42" rx="8.52" style="fill:#fdce74;stroke:#fdce74;stroke-miterlimit:10;stroke-width:15.492364627528426px"/><rect x="547.95" y="96.93" width="93.7" height="17.42" rx="8.52" style="fill:#fdce74;stroke:#fdce74;stroke-miterlimit:10;stroke-width:15.492364627528426px"/><rect x="468.84" y="96.93" width="49.81" height="17.42" rx="8.52" style="fill:#fdce74;stroke:#fdce74;stroke-miterlimit:10;stroke-width:15.492364627528426px"/><rect x="635.47" y="238.25" width="93.7" height="17.42" rx="8.52" style="fill:#fdce74;stroke:#fdce74;stroke-miterlimit:10;stroke-width:15.492364627528426px"/><rect x="525.95" y="238.25" width="80.22" height="17.42" rx="8.52" style="fill:#fdce74;stroke:#fdce74;stroke-miterlimit:10;stroke-width:15.492364627528426px"/><rect x="403.58" y="238.25" width="93.7" height="17.42" rx="8.52" style="fill:#fdce74;stroke:#fdce74;stroke-miterlimit:10;stroke-width:15.492364627528426px"/><circle cx="569.96" cy="152.58" r="9.72" style="fill:#fee2ac"/><circle cx="534.69" cy="246.97" r="9.72" style="fill:#fee2ac"/><circle cx="489.78" cy="293.5" r="9.72" style="fill:#fee2ac"/><circle cx="683.8" cy="293.29" r="9.72" style="fill:#fee2ac"/><circle cx="488.75" cy="247.06" r="9.72" style="fill:#fee2ac"/><circle cx="443.26" cy="293.79" r="9.72" style="fill:#fee2ac"/><circle cx="585.16" cy="199.84" r="9.72" style="fill:#fee2ac"/><circle cx="644.49" cy="247.06" r="9.72" style="fill:#fee2ac"/><circle cx="537.2" cy="200.34" r="9.72" style="fill:#fee2ac"/><circle cx="577.5" cy="341.99" r="9.72" style="fill:#fee2ac"/><circle cx="597.03" cy="247.06" r="9.72" style="fill:#fee2ac"/><circle cx="637.32" cy="294.03" r="9.72" style="fill:#fee2ac"/><circle cx="683.55" cy="339.77" r="9.72" style="fill:#fee2ac"/><circle cx="625.21" cy="340.51" r="9.72" style="fill:#fee2ac"/><circle cx="620.02" cy="152.13" r="9.72" style="fill:#fee2ac"/><circle cx="697.4" cy="152.87" r="9.72" style="fill:#fee2ac"/><circle cx="557.23" cy="105.65" r="9.72" style="fill:#fee2ac"/><circle cx="511" cy="106.89" r="9.72" style="fill:#fee2ac"/><path d="M382.5,174.11v131c0,3.73-.08,7.46,0,11.19a59.9,59.9,0,0,0,29.64,50.14c3.83,2.23,7.67,4.43,11.51,6.65L447.82,387l29.95,17.29L506.66,421l21,12.11c6.15,3.55,12.09,7,19,9.15a43.76,43.76,0,0,0,7,1.57,67.12,67.12,0,0,0,11.23,1,56.69,56.69,0,0,0,18.18-3.29A77.68,77.68,0,0,0,594.7,436l15-8.67,26.1-15.07,30.32-17.5,27.67-16L712,368.3l3.39-1.95a61.28,61.28,0,0,0,20.38-19.59c6.76-10.33,9.17-22.42,9.17-34.58V176.49c0-12.81-3-25.84-10.79-36.26a71.13,71.13,0,0,0-6.62-8,72.89,72.89,0,0,0-8.06-6.62,45,45,0,0,0-4.23-2.75l-3.88-2.24-18.88-10.9-28-16.17L634.22,76.1,608.55,61.28l-14.22-8.21A65.6,65.6,0,0,0,580,46.82a67.54,67.54,0,0,0-11.13-2,43,43,0,0,0-7.17-.28,57.06,57.06,0,0,0-18.14,3.57,127.8,127.8,0,0,0-16.85,8.61L505.08,69.25,475.94,86.08l-29.8,17.2-23.6,13.62c-3.51,2-7,4-10.53,6.09a59.85,59.85,0,0,0-29.51,51.12,17.93,17.93,0,0,0,5.1,12.33c3,3,8,5.3,12.33,5.1,9.49-.42,17.36-7.65,17.43-17.43a44.63,44.63,0,0,1,.4-5.77l-.63,4.64A43.38,43.38,0,0,1,420,162.54l-1.76,4.16a43.84,43.84,0,0,1,5.44-9.28L421,161a43.53,43.53,0,0,1,7.29-7.32l-3.53,2.73c4.78-3.68,10.38-6.46,15.59-9.46l29.53-17.05,36.55-21.1,31.22-18c4.68-2.7,9.35-5.43,14-8.11a46.39,46.39,0,0,1,4.79-2.38L552.3,82a43.31,43.31,0,0,1,10.6-2.86l-4.63.62a44.17,44.17,0,0,1,10.9,0l-4.64-.62A43.39,43.39,0,0,1,575.14,82L571,80.23c5.54,2.36,10.72,5.8,15.92,8.8l29.74,17.17,36.56,21.11,31,17.92c4.55,2.63,9.12,5.24,13.66,7.89a45,45,0,0,1,4.81,3.24l-3.52-2.73a43.47,43.47,0,0,1,7.28,7.32l-2.72-3.53a43.37,43.37,0,0,1,5.43,9.28l-1.75-4.16A43.36,43.36,0,0,1,710.3,173l-.62-4.64c.8,6,.4,12.3.4,18.34v112.6c0,5.3,0,10.6,0,15.9a44.94,44.94,0,0,1-.4,5.79l.62-4.64a43.36,43.36,0,0,1-2.88,10.44l1.75-4.16a43.37,43.37,0,0,1-5.43,9.28l2.72-3.53a42.68,42.68,0,0,1-7.28,7.31L702.7,333c-4.77,3.68-10.38,6.46-15.58,9.46l-29.53,17L621,380.56l-31.22,18c-4.69,2.7-9.36,5.43-14.06,8.11a44.47,44.47,0,0,1-4.79,2.38l4.17-1.76a43.39,43.39,0,0,1-10.61,2.86l4.64-.62a44.17,44.17,0,0,1-10.9,0l4.63.62a43.31,43.31,0,0,1-10.6-2.86l4.16,1.76c-5.53-2.36-10.71-5.8-15.91-8.8l-29.74-17.17L474.25,362l-31-17.92c-4.55-2.63-9.12-5.24-13.66-7.89a46.11,46.11,0,0,1-4.82-3.24l3.53,2.72a43.1,43.1,0,0,1-7.29-7.31l2.73,3.53a43.84,43.84,0,0,1-5.44-9.28l1.76,4.16a43.38,43.38,0,0,1-2.89-10.44l.63,4.64c-.79-5.88-.4-12-.4-17.92v-111c0-5.9.08-11.8,0-17.69a2.43,2.43,0,0,1,0-.27,18,18,0,0,0-5.11-12.32c-3-3-8-5.3-12.32-5.1C390.48,157.11,382.5,164.34,382.5,174.11Z" transform="translate(0 -0.53)" style="fill:#fbae17"/><text transform="translate(44.55 713.24) scale(0.98 1)" style="font-size:92.95419311523438px;fill:#fdce74;font-family:GillSansMT, Gill Sans MT;letter-spacing:-0.004998448472130233em">DESIGN &amp; DEVELOPMENT</text></svg>