<svg id="Layer_1" data-name="Layer 1" xmlns="http://www.w3.org/2000/svg" viewBox="0 0 1035.89 695.46"><text transform="translate(119.93 528.68)" style="font-size:123.9389419555664px;fill:#2a2c3f;font-family:Montserrat-Light, Montserrat;font-weight:300"><tspan style="letter-spacing:0.038738990792509045em">Ho</tspan><tspan x="187.33" y="0" style="letter-spacing:0.03973573285195223em">n</tspan><tspan x="275.66" y="0" style="letter-spacing:0.028743992354535338em">e</tspan><tspan x="353.22" y="0" style="letter-spacing:0.02374058359764665em">y</tspan><tspan x="421.6" y="0" style="letter-spacing:0.029752553489782195em">c</tspan><tspan x="494.07" y="0" style="letter-spacing:0.038735051100574486em">om</tspan><tspan x="712.39" y="0">b</tspan></text><path d="M418.18,184.65v120a41.6,41.6,0,0,0,20.81,36l103.92,60a41.64,41.64,0,0,0,41.62,0l103.92-60a41.6,41.6,0,0,0,20.81-36v-120a41.6,41.6,0,0,0-20.81-36l-103.92-60a41.59,41.59,0,0,0-41.62,0L439,148.62A41.6,41.6,0,0,0,418.18,184.65Z" transform="translate(-44.55 -44.54)" style="fill:#fbae17"/><path d="M394.94,184.65V303.39a89.5,89.5,0,0,0,1.34,13.93c.87,5.51,3,10.53,5.27,15.62s5.65,9.58,9.22,14a60.26,60.26,0,0,0,16.67,13.9q5.1,3,10.22,5.9L485,394.11l42,24.22c7.14,4.12,14.56,8,22.75,9.61,6,1.14,12.21,2,18.3,1.35s11.92-1.43,17.55-3.67a92.63,92.63,0,0,0,12-5.6l36.38-21,49.86-28.79,14.43-8.33c10.72-6.19,20.13-14.7,26.08-25.69a66.91,66.91,0,0,0,8.2-31.55V185.79a85.39,85.39,0,0,0-1.42-14.25c-.94-5.61-3.2-10.85-5.56-16s-5.68-9.3-9.13-13.55c-5.37-6.61-12.57-11.34-19.87-15.56l-41.16-23.77L607.52,75.05c-3.64-2.09-7.27-4.2-10.9-6.29-.88-.5-1.76-1-2.67-1.44-5.41-2.69-11.22-5.13-17.23-6.12s-11.81-1.78-17.81-1.12a84.46,84.46,0,0,0-11.68,1.85,76.37,76.37,0,0,0-11.39,4.31,113.72,113.72,0,0,0-11.17,6.07L505.51,83.37,454.36,112.9l-19.58,11.31c-3,1.75-6.16,3.42-9.12,5.31a64.86,64.86,0,0,0-30.72,55.13,24,24,0,0,0,6.81,16.44,25.88,25.88,0,0,0,16.43,6.8c6-.27,12.25-2.24,16.43-6.8a24.23,24.23,0,0,0,6.81-16.44,47,47,0,0,1,.37-5.56l-.83,6.17a43.83,43.83,0,0,1,2.88-10.56l-2.34,5.55a43.24,43.24,0,0,1,5.49-9.38l-3.64,4.7a43.78,43.78,0,0,1,7.43-7.41l-4.7,3.63c4.22-3.22,9.12-5.69,13.71-8.34L485,148.87l31.15-18,26.58-15.35c4-2.28,7.9-4.58,11.86-6.85a46.25,46.25,0,0,1,4.68-2.32l-5.55,2.34a43.3,43.3,0,0,1,10.83-2.92l-6.17.83a43.88,43.88,0,0,1,10.62,0l-6.17-.83a43.3,43.3,0,0,1,10.83,2.92l-5.55-2.34c4.88,2.09,9.46,5.09,14.05,7.74l25.43,14.68,31.17,18L665.2,162c3.84,2.22,7.69,4.42,11.52,6.65a46.34,46.34,0,0,1,4.64,3.11l-4.7-3.63a43.78,43.78,0,0,1,7.43,7.41l-3.64-4.7a43.24,43.24,0,0,1,5.49,9.38l-2.35-5.55a43.4,43.4,0,0,1,2.89,10.56l-.83-6.17c.68,5.3.37,10.8.37,16.13v96c0,4.46,0,8.93,0,13.4a47.39,47.39,0,0,1-.37,5.58l.83-6.18a43.4,43.4,0,0,1-2.89,10.56l2.35-5.55a43.24,43.24,0,0,1-5.49,9.38l3.64-4.7a43.41,43.41,0,0,1-7.43,7.41l4.7-3.63c-4.23,3.23-9.12,5.7-13.71,8.35l-25.24,14.57-31.15,18-26.58,15.34c-3.95,2.28-7.9,4.58-11.86,6.85a46.33,46.33,0,0,1-4.68,2.33l5.55-2.35a43.3,43.3,0,0,1-10.83,2.92l6.17-.83a42.89,42.89,0,0,1-10.62,0l6.17.83a43.3,43.3,0,0,1-10.83-2.92L559.3,383c-4.88-2.1-9.46-5.09-14-7.74l-25.43-14.69-31.17-18-26.41-15.25c-3.84-2.21-7.69-4.41-11.52-6.65a46.34,46.34,0,0,1-4.64-3.11l4.7,3.63a43.41,43.41,0,0,1-7.43-7.41l3.64,4.7a43.24,43.24,0,0,1-5.49-9.38l2.34,5.55A43.83,43.83,0,0,1,441,304.05l.83,6.18c-.66-5.15-.37-10.5-.37-15.68V200c0-5,.05-10.06,0-15.09v-.23a24,24,0,0,0-6.81-16.43,25.82,25.82,0,0,0-16.43-6.8c-6,.27-12.24,2.24-16.43,6.8A24.18,24.18,0,0,0,394.94,184.65Z" transform="translate(-44.55 -44.54)" style="fill:#fbae17"/><rect x="531.09" y="147.14" width="150.39" height="17.42" rx="8.52" style="fill:#fdce74;stroke:#fdce74;stroke-miterlimit:10;stroke-width:15.492367337302529px"/><rect x="358.29" y="147.14" width="142.65" height="17.42" rx="8.52" style="fill:#fdce74;stroke:#fdce74;stroke-miterlimit:10;stroke-width:15.492367337302529px"/><rect x="367.19" y="100.03" width="168.11" height="17.42" rx="8.52" style="fill:#fdce74;stroke:#fdce74;stroke-miterlimit:10;stroke-width:15.492367337302529px"/><rect x="565.33" y="100.03" width="93.7" height="17.42" rx="8.52" style="fill:#fdce74;stroke:#fdce74;stroke-miterlimit:10;stroke-width:15.492367337302529px"/><rect x="571.88" y="288.46" width="73.98" height="17.42" rx="8.52" style="fill:#fdce74;stroke:#fdce74;stroke-miterlimit:10;stroke-width:15.492367337302529px"/><rect x="361.93" y="288.46" width="181.27" height="17.42" rx="8.52" style="fill:#fdce74;stroke:#fdce74;stroke-miterlimit:10;stroke-width:15.492367337302529px"/><rect x="434.18" y="241.35" width="168.11" height="17.42" rx="8.52" style="fill:#fdce74;stroke:#fdce74;stroke-miterlimit:10;stroke-width:15.492367337302529px"/><rect x="629.42" y="241.35" width="57.33" height="17.42" rx="8.52" style="fill:#fdce74;stroke:#fdce74;stroke-miterlimit:10;stroke-width:15.492367337302529px"/><rect x="349.14" y="241.35" width="59.09" height="17.42" rx="8.52" style="fill:#fdce74;stroke:#fdce74;stroke-miterlimit:10;stroke-width:15.492367337302529px"/><rect x="432.57" y="335.57" width="160.37" height="17.42" rx="8.52" style="fill:#fdce74;stroke:#fdce74;stroke-miterlimit:10;stroke-width:15.492367337302529px"/><rect x="503.4" y="52.92" width="93.7" height="17.42" rx="8.52" style="fill:#fdce74;stroke:#fdce74;stroke-miterlimit:10;stroke-width:15.492367337302529px"/><rect x="424.29" y="52.92" width="49.81" height="17.42" rx="8.52" style="fill:#fdce74;stroke:#fdce74;stroke-miterlimit:10;stroke-width:15.492367337302529px"/><rect x="590.92" y="194.25" width="93.7" height="17.42" rx="8.52" style="fill:#fdce74;stroke:#fdce74;stroke-miterlimit:10;stroke-width:15.492367337302529px"/><rect x="481.4" y="194.25" width="80.22" height="17.42" rx="8.52" style="fill:#fdce74;stroke:#fdce74;stroke-miterlimit:10;stroke-width:15.492367337302529px"/><rect x="359.03" y="194.25" width="93.7" height="17.42" rx="8.52" style="fill:#fdce74;stroke:#fdce74;stroke-miterlimit:10;stroke-width:15.492367337302529px"/><circle cx="525.41" cy="108.57" r="9.72" style="fill:#fee2ac"/><circle cx="490.14" cy="202.96" r="9.72" style="fill:#fee2ac"/><circle cx="445.22" cy="249.49" r="9.72" style="fill:#fee2ac"/><circle cx="639.25" cy="249.28" r="9.72" style="fill:#fee2ac"/><circle cx="444.19" cy="203.05" r="9.72" style="fill:#fee2ac"/><circle cx="398.71" cy="249.78" r="9.72" style="fill:#fee2ac"/><circle cx="540.61" cy="155.83" r="9.72" style="fill:#fee2ac"/><circle cx="599.94" cy="203.05" r="9.72" style="fill:#fee2ac"/><circle cx="492.65" cy="156.33" r="9.72" style="fill:#fee2ac"/><circle cx="532.95" cy="297.98" r="9.72" style="fill:#fee2ac"/><circle cx="552.48" cy="203.05" r="9.72" style="fill:#fee2ac"/><circle cx="592.77" cy="250.02" r="9.72" style="fill:#fee2ac"/><circle cx="639" cy="295.76" r="9.72" style="fill:#fee2ac"/><circle cx="580.66" cy="296.5" r="9.72" style="fill:#fee2ac"/><circle cx="575.47" cy="108.12" r="9.72" style="fill:#fee2ac"/><circle cx="652.85" cy="108.86" r="9.72" style="fill:#fee2ac"/><circle cx="512.67" cy="61.64" r="9.72" style="fill:#fee2ac"/><circle cx="466.44" cy="62.88" r="9.72" style="fill:#fee2ac"/><path d="M382.5,174.12v131c0,3.73-.08,7.46,0,11.19a59.93,59.93,0,0,0,29.64,50.15q5.75,3.33,11.51,6.64L447.82,387l29.95,17.29L506.66,421l21,12.11c6.14,3.55,12.08,7,19,9.16a44.83,44.83,0,0,0,7,1.56,66.08,66.08,0,0,0,11.23,1,56.42,56.42,0,0,0,18.18-3.29A78.16,78.16,0,0,0,594.7,436l15-8.68,26.1-15.07,30.32-17.5,27.67-16L712,368.3l3.39-1.95a61.38,61.38,0,0,0,20.39-19.58c6.75-10.34,9.16-22.43,9.16-34.59V176.49c0-12.8-3-25.84-10.79-36.25a70.35,70.35,0,0,0-6.62-8,72.89,72.89,0,0,0-8.06-6.62,45,45,0,0,0-4.23-2.75l-3.87-2.24-18.89-10.9-28-16.17L634.22,76.1,608.55,61.28l-14.22-8.21A65.6,65.6,0,0,0,580,46.82a68.61,68.61,0,0,0-11.13-2,42.93,42.93,0,0,0-7.17-.28,56.68,56.68,0,0,0-18.13,3.58,125.34,125.34,0,0,0-16.85,8.6L505.09,69.25,475.94,86.08l-29.8,17.2-23.6,13.63c-3.51,2-7,4-10.53,6.08a59.87,59.87,0,0,0-29.51,51.13,17.92,17.92,0,0,0,5.1,12.32c3,3,8,5.3,12.33,5.1,9.49-.42,17.36-7.65,17.43-17.42a44.39,44.39,0,0,1,.4-5.77l-.62,4.63A43.36,43.36,0,0,1,420,162.54l-1.75,4.16a43.37,43.37,0,0,1,5.43-9.28L421,161a43.1,43.1,0,0,1,7.29-7.31l-3.53,2.72c4.78-3.68,10.39-6.46,15.59-9.46l29.53-17.05,36.55-21.1,31.22-18c4.69-2.7,9.36-5.43,14-8.11a46.39,46.39,0,0,1,4.79-2.38L552.3,82a43.72,43.72,0,0,1,10.61-2.86l-4.64.62a44.17,44.17,0,0,1,10.9,0l-4.64-.62A43.84,43.84,0,0,1,575.14,82L571,80.23c5.53,2.36,10.71,5.8,15.91,8.8l29.74,17.17,36.56,21.11,31,17.92c4.55,2.63,9.12,5.24,13.66,7.89a46.11,46.11,0,0,1,4.82,3.24l-3.53-2.72a43.1,43.1,0,0,1,7.29,7.31l-2.73-3.53a43.37,43.37,0,0,1,5.43,9.28l-1.75-4.16A43.36,43.36,0,0,1,710.3,173l-.62-4.63c.8,6,.4,12.29.4,18.33v112.6c0,5.3,0,10.6,0,15.9a44.94,44.94,0,0,1-.4,5.79l.62-4.64a43.57,43.57,0,0,1-2.88,10.45l1.75-4.17a43.37,43.37,0,0,1-5.43,9.28l2.73-3.53a43.53,43.53,0,0,1-7.29,7.32l3.53-2.73c-4.78,3.68-10.39,6.46-15.59,9.46l-29.53,17L621,380.56l-31.22,18c-4.69,2.7-9.36,5.43-14.05,8.11a46.39,46.39,0,0,1-4.79,2.38l4.16-1.76a43.39,43.39,0,0,1-10.61,2.86l4.64-.62a43.22,43.22,0,0,1-10.9,0l4.64.62a43.27,43.27,0,0,1-10.61-2.86l4.16,1.76c-5.53-2.36-10.71-5.8-15.91-8.8l-29.74-17.17L474.25,362l-31-17.92c-4.55-2.63-9.12-5.23-13.66-7.89a43.18,43.18,0,0,1-4.82-3.24l3.53,2.73a43.53,43.53,0,0,1-7.29-7.32l2.73,3.53a43.37,43.37,0,0,1-5.43-9.28l1.75,4.17a43.57,43.57,0,0,1-2.88-10.45l.62,4.64c-.79-5.87-.4-12-.4-17.92v-111c0-5.9.08-11.8,0-17.69v-.26a18,18,0,0,0-5.11-12.33c-3-3-8-5.3-12.32-5.1C390.48,157.11,382.5,164.34,382.5,174.12Z" transform="translate(-44.55 -44.54)" style="fill:#fbae17"/><text transform="translate(0 669.22) scale(0.98 1)" style="font-size:92.9542007446289px;fill:#2a2c3f;font-family:GillSansMT, Gill Sans MT;letter-spacing:-0.0049984480618729754em">DESIGN &amp; DEVELOPMENT</text></svg>