<svg xmlns="http://www.w3.org/2000/svg" viewBox="0 0 1200 816"><g id="Layer_2" data-name="Layer 2"><rect x="1.17" y="-0.85" width="1198.98" height="817.02" style="fill:#292b34"/></g><g id="Layer_2_Image" data-name="Layer 2 Image"><path d="M478.82,272.18c5.33-1.73,9.24-5.84,14.09-8.38a2.11,2.11,0,0,0,.83-1c3.6-8.57,11.26-13.09,18.24-18.29,8.38-5.31,17.54-9.12,26.27-13.75,2.34-1.25,4.48-1.5,6.82-.09a7,7,0,0,0,5,1.06c-2.8-2.86-2.45-4.17,1.23-5.44,5.35-1.85,10.24-4.67,15.18-7.37,5.23-2.86,10.56-5.54,16-8C575.7,214,569,217.07,562.15,220c-7.17,3.11-14.06,6.87-21.59,9.12a7.76,7.76,0,0,1-2.31.62c-2,0-3-1.51-1.94-3.23s2.3-3.15,3.46-4.72L541,221c3.67-3.37,8.51-4.46,12.84-6.53,6.22-3,12.76-5.29,18.83-8.63a3.09,3.09,0,0,1,1.6-.6c6,.49,8.5-4.23,11.7-7.89.45-.52.91-.95-.1-1.58-1.94-1.22-1-2.53.2-3.62a48.77,48.77,0,0,1,15.16-9.31,2.84,2.84,0,0,1,2.66.1c2.34,1.46,4.5,1.1,6.82-.18s3.95-.67,6,2.08c1.61,2.15-.17,3.08-1.34,4.25a10.26,10.26,0,0,1-9,3.3c-2.73-.35-3.9,2.46-6,3.45-.68.31-.12,1.3.53,1.64,1.27.68,1.82,2,2.75,3,1.6-.56,2.14-2.1,3.15-3.14,3.59-3.68,8-5.51,12.81-3.89,5.95,2,10.65-.27,15.51-2.81a5.58,5.58,0,0,0,2.49-1.81c.63-1.08,2.09-2.14-.75-2.9-3.32-.89-3.49-3.47-.8-5.72,4.89-4.07,10.91-5.85,16.67-8.11a3.33,3.33,0,0,1,3.8,1c1,1.11.41,2.12-.44,3-1.4,1.54.69,2.1.81,3.42a5.28,5.28,0,0,0,2.23-4.2,5.39,5.39,0,0,1,2.38-4.71c.7-.45,1.35-1.09.56-2a1.64,1.64,0,0,0-2.21-.35c-3.51,2.92-8.09,1.93-12,3.35s-4.78.13-5.73-3.94c-1.09-4.65,0-9.16-.18-13.72-.11-4.17,3-6.87,5.12-9.93,3.4-4.86,8.34-8.54,10.87-14.09,1.08-2.36,4.26-2.29,5.44-4.58,8.64-4.3,13.4-12.37,18.94-19.64,4.22-5.54,9.78-9.4,15.64-12.85a92.4,92.4,0,0,1,42.81-13c10.24-.5,19.53,2.8,28.7,6.61,5.62,2.34,11.33,4.53,16.44,8,6.56,4.45,10.07,11.16,13.73,17.81a25.48,25.48,0,0,1,2.75,8.42c.34,2.13.82,4.32-.44,6.36-1-7-7.71-9.58-11.35-14.54-.33-.46-.83-1-1.34-1.05-4.69-.29-8.42-4-13.25-3.72-2.36.12-4.32-1.08-6.44-1.72-3.88-1.17-8-3.62-12.33-.94-1.35.84-2.68.08-3.86-.68a25.78,25.78,0,0,0-6.25-2.92c-3.26-1-5.76-.13-7.79,2.65-2.33,3.18-5.89,4.35-9.37,5.47-4.11,1.33-8.54,1.69-11.81,5.15-1.26,1.33-3.41,1.2-5.27,1.3-3.67.2-5.89,2-6.17,4.78-.41,4.15,1.76,7.8,5.15,8.66,5.81,1.47,7,2.85,7.11,8.37.08,3.31-1.17,4.41-4.36,3.78-1.11-.21-2.42-.88-3,.56-.51,1.22.78,1.74,1.56,2.36s1.4,1,1.43,1.88c.18,4.17,2.75,3.62,5.57,3,3.49-.71,4.87.18,5.75,3.2.66,2.24,0,3.38-2.44,3.19-1.55-.13-3.18-.29-3.81,1.51-.74,2.1.82,3.46,2,4.79a3.31,3.31,0,0,0,4.42.46c1.41-.81,2.4-2.15,3.62-3.2s2.75-1.75,4.37-.59a4,4,0,0,1,1.84,4.48,7.75,7.75,0,0,1-2.57,4.42c-2.75,2.08-4.83,4.91-7.85,6.71-2.74,1.64-3.83,4.69-6.12,7.71a47.34,47.34,0,0,0,15.84-6.36c1.64-1,3.08-2.39,4.76-3.4a8.42,8.42,0,0,0,4.06-4.54,2.82,2.82,0,0,1,1.72-2c1.19-.38,2.57-1,3.57.08s.42,2.38-.35,3.47c-6.75,9.63-16.09,16-26.55,20.88-2.11,1-4.48,1-6.76,1.33-2,.31-3.8,1-1.93,3.6,1.38,1.91.15,3.24-1.15,4.46-1.85,1.74-4.35,2.79-5.92,4.74a54.78,54.78,0,0,0-6.75,11,39.05,39.05,0,0,1-6.18,8.66c-1.27,1.48-2.7,2.82-4,4.32-2.34,2.77-3.32,6-2.3,9.37,2,6.63-.94,11.65-4.64,16.52a43.48,43.48,0,0,0-4.3,5.82c-.94,1.79-.88,3.33,1.44,4.06,5,1.59,5.33,2.4,2.81,7.12a2.41,2.41,0,0,0-.58,1.85c2.88-.79,5.87-1,8.7-1.83a15.47,15.47,0,0,0,8.75-6.38c1.9-2.88,3.51-3,5.16-.19,1.35,2.28,2.35,2.1,4.23.72,3-2.2,5.19-1.79,7.06,1.65,1.7,3.12,3.46,4.42,7.08,3,2.55-1,5,.65,7.12,1.95a5.68,5.68,0,0,0,6.42.07,11.57,11.57,0,0,1,10-.9c2.17.79,4.5.92,6.71,1.6,2.68.82,5.4,1.45,6.49,4.84,2.08-1.87,3.58-3.61,5.27-5.14,2.41-2.18,3.82-2.24,6.39-.28a23.11,23.11,0,0,0,3.85,2.9c3,1.43,5,.39,5.34-2.91.21-1.72.14-3.48,1-5.06,1.22-2.34,3.09-2.46,4.31-.12a9.12,9.12,0,0,0,3.72,3.93,4.21,4.21,0,0,1,2.19,3.28,5.18,5.18,0,0,0,7.23,4.05c2.49-1.18,5.19-2.36,4.91-6.22-.2-2.89,3.12-4.38,6.23-2.85a40.8,40.8,0,0,1,9,6.36c4,3.6,7,3.05,9.33-2s2.93-10.15,3.35-15.45a11,11,0,0,1,.79-4c2.68-5.58,1.28-10.88-1.61-15.78-1.84-3.14-3-5.94-1.86-9.7,1.05-3.43-1-6.72-1.69-10.08-.15-.79-.88-1-1.63-.93a2.55,2.55,0,0,0-2.29,1.83,11.3,11.3,0,0,0,0,5.14,4.18,4.18,0,0,1-2.76,5,4,4,0,0,1-5.16-1.66c-3.57-5.71-8.33-10.77-9.5-17.82-.4-2.47-.52-4.83,1.49-6.32s4.21-.38,6.11.77a19.06,19.06,0,0,1,3.67,2.57c2,1.93,3,.58,3.39-1.15a14.11,14.11,0,0,0-1-8.44c-.51-1.28-1.54-1.15-2.6-.66a4,4,0,0,1-4.75-1.07c-3.74-3.73-8.1-6.86-11.25-11.17A14.66,14.66,0,0,1,798.91,171c.78-2.47,2-4.35,4.57-5.22,2.24-.77,2.79-2,1.36-4.18a36.71,36.71,0,0,1-2.85-6.28c-.47-1.12-1.17-2.33-.18-3.57,3.72,4,7.21,8.33,10.88,12.41a45.78,45.78,0,0,1,7.26,9.93,148.48,148.48,0,0,0,9,15.53c1.54,2.39.8,3.9-1.61,4.81-2.7,1-2.49,3.36-2.11,5.33a14.93,14.93,0,0,0,2.45,5.65,17.63,17.63,0,0,1,2.87,6.76c2.15,9.95,5,19.78,5.62,30a92.72,92.72,0,0,1-1.29,24.38c-2,9.26-5.76,17.9-9.07,26.71a6.14,6.14,0,0,1-1,1.79c-.51.62-1,1.38-1.95,1.2s-1-1.16-1.12-1.93a17.45,17.45,0,0,1,.75-7.85c.45-1.21.62-2.53-.56-3.49s-2.36-.39-3.54.17c-3.45,1.61-3.56,1.56-5.29-1.65s-3.71-3.72-6.59-1.24c-2.18,1.88-4.41,3.7-6.56,5.62-3.63,3.25-4.9,3.24-8.32,0-1.72-1.66-3.24-1.68-5.18-.29-4.73,3.4-4.77,3.33-9.47-.42a21.22,21.22,0,0,0-6.15-3.77c-2.35-.81-3.8-.07-4.45,2.31-.09.34-.16.68-.26,1-1,3.31-2.65,5-5,4.72-2.86-.32-4.12-2.25-4.47-4.92-.41-3.13-2.63-4.19-5.34-4.42a27.86,27.86,0,0,1-6.41-1.24,11.46,11.46,0,0,0-8.75.45,7.59,7.59,0,0,1-8.38-.85c-4.1-3-8.67-2.54-12.31.91-2.52,2.38-5.07,4.31-8.74,4.19a3.85,3.85,0,0,0-3.23,1.75A22.88,22.88,0,0,1,692.63,293a15.87,15.87,0,0,0-6.22,4.28,27.28,27.28,0,0,1-9,6.31,32.68,32.68,0,0,0-9,5.67c-2.69,2.51-3.17,2.12-6.06-.17a22.08,22.08,0,0,0-11.6-4.67c-7.55-.65-15.16-.44-22.48,2.4a15.41,15.41,0,0,1-11.5-.18,19.61,19.61,0,0,0-4-1.08c-1.19-.21-2.35-.58-2.45-2-.15-2.37-1.74-2.7-3.61-2.76-.46,0,.12,0-.34,0-1.89-.18-4.36.54-5.23-1.69-.95-2.44,1.88-3,3.19-4.78a8.8,8.8,0,0,1-5.67.22c-1.93-.49-2.92-1.45-2.77-3.66.23-3.19-3.45-5.88-6.55-4.66-5.11,2-9.07.8-12.18-3.61a1.74,1.74,0,0,0-2.94-.24c-1.9,1.93-4,2-6.38,1.21-4.41-1.47-8.38-.5-12.12,2.05s-7.45,4.61-11,7.13a4.71,4.71,0,0,1-5.08.4c-5.15-2.08-9.91-4.9-14.93-7.18-5.65-2.57-11.89-3.58-17.91-5.13-2.51-.65-4.47-1.86-5.44-4.31-.87-2.18,0-3.75,2.2-3.3,13.21,2.7,25.54-2.05,38.16-4.26,5.3-.92,10.6-1.87,14.92-2.88-13.9,2.54-28.74,5.14-43.62,7.55a12.22,12.22,0,0,1-4.47-.11c-1.77-.38-2.34-1.33-1.44-3,5.73-2.11,11.82-2.54,17.73-3.85,10.56-2.35,21.25-4,32.73-6-13.95,2.25-27,4.72-40,7.38-4,.82-8.15,1.25-12,2.77-2,0-4.53,1.39-5.61-1.74.49-1.49,1.8-1.53,3-1.82q23.64-5.57,47.46-10.26a42.51,42.51,0,0,0,4.87-1.28c-8.92,2.19-17.94,3.85-26.91,5.72-10,2.07-20,4.3-29.78,7.11-1,.35-2,.2-3.07.67-.16,1,.86.75,1.29,1.07s1,.65.88,1.32-.77,1.06-1.44,1.25-1.6.15-2.37.33c-2.11.51-5.1-.08-4.6,3.77.09.67-.95,1.22-1.61,1.67a5.09,5.09,0,0,1-.91.44c-2.4.46-4.45,1.74-6.61,2.78a10.92,10.92,0,0,1-4.51,1.51c-1.45,0-3.31.45-3.92-1.26-.69-1.94.45-3.54,2.06-4.65a10.8,10.8,0,0,1,4.55-1.4,3.54,3.54,0,0,0,2.17-.87C480.89,273.6,476.5,274.81,478.82,272.18Z" style="fill:#636261"/><path d="M500.32,268.77c1.29,2.6,3.61.75,5.39,1.26.85-.37,1.58-.51,1.51.81-.28,2.24,1.27,2,2.67,2,5.63-.13,11.08-1.55,16.6-2.44,11.35-1.83,22.68-3.85,34.14-5.81-.26,1.49-1.16,1.79-2.22,2C546.66,269,534.83,271,523.19,274c-6.4,1.62-13,1.1-19.46.09-2.45-.38-2.49.57-1.72,2.1a6,6,0,0,0,4.27,3.65c2.58.48,5.08,1.44,7.66,1.89,7.48,1.32,14.16,4.57,20.56,8.4,2.25,1.35,5.27.67,7.06,3.14.45.63,1.37-.51,2-.91,4.17-2.64,8.36-5.25,12.46-8a12.94,12.94,0,0,1,12.1-1.64c2,.71,4,1.42,5.29-1.2.66-1.38,1.94-1,3-1a1.8,1.8,0,0,1,1.89,2c-.07,1.74,1.22,1.59,2.3,2.21,3.29,1.92,6.1,1.79,9.53.1,3-1.46,4.55,2.39,7.07,3.32,1.32.48-.12,1.92-.57,2.91-.64,1.41.11,2.22,1.45,2.5,2.23.47,4.49,1,6.61-.46.52-.35,1.15-1.19,1.73-.39s-.28,1.34-.91,1.84c-.9.71-1.7,1.56-2.61,2.25-.72.54-1.85.86-1.42,2s1.63,1,2.67,1c1.95-.07,3.89-.35,5.8.42,1.09.44,1.92.75,1.3,2.18-.78,1.74.15,2.3,1.76,2.28,1.91,0,3.52.95,5.26,1.5a15.53,15.53,0,0,0,10.8-.61c7.49-3.08,15.51-3,23.06-1.88,3.8.58,9.19,1.17,11.75,5.79.65,1.17,1.55,1.26,2.49.24,4.08-4.43,9.64-6.47,14.8-9.16a16.18,16.18,0,0,0,3.86-3.42,25.38,25.38,0,0,1,9.17-5.88c3.19-1.22,6.41-3,8.22-6.4a4.25,4.25,0,0,1,4.56-2.44c2.8.39,4.79-.9,6.72-2.78,5.34-5.22,10-5.65,15.9-1.11,2.32,1.77,4.25.72,6-.1a12.42,12.42,0,0,1,11.25.17c1.32.64,2.7.42,4.07.48,4.21.21,6,1.8,6.51,5.86.27,2.31,1.57,3.59,3.8,3.65s3.39-1.19,3.84-3.25c.22-1,.29-2.05.6-3,.64-2.11,2-2.88,4.23-2.26a19.23,19.23,0,0,1,8.69,5.37c2.15,2.22,3.81,2.3,6.15.35,4.53-3.79,4.85-3.73,8.67,1,1,1.24,1.78,1.11,2.91.5,3.28-1.77,5.81-4.48,8.47-7,4.56-4.24,7.21-3.8,9.47,2.06.49,1.28,1,1.74,2.22.86.56-.4,1.21-.69,1.75-1.12a3.39,3.39,0,0,1,4.45-.11,3.19,3.19,0,0,1,.86,4.35c-1.66,3.07-.91,6.19-.56,9.44,4.8-9.41,8.24-19.35,11.84-29.22-1.71,11.77-4.8,23.14-11,33.36-1.71,2.79-2.21,5.93-3.76,8.64-3.29,5.8-7.12,11.3-10.2,17.21-1.82,3.49-4.31,6.32-6.69,9.31-6.79,9.29-14.17,18.09-21.54,26.91a225.75,225.75,0,0,1-34.22,34.74c-6.26,5.16-13.43,8.68-21,11.54-3.51,1.33-7,2.82-10.52,4.09-8.15,2.9-16.17,2.27-24.45,1.21-6.63-.85-13.25-2.27-20-1.77a32.62,32.62,0,0,0-6.73,1,23.09,23.09,0,0,1-11.47-.07c-7.83-1.7-15.76-2.94-23.63-4.45a17.75,17.75,0,0,1-9.77-5.47c-2.78-.1-4.22-1.9-5.83-4-4.18-5.33-5.35-11.65-6.44-18a9.18,9.18,0,0,1,3-8.46c1.92-1.81,4-3.54,5-6.09.78-1.93,1.61-4,.92-6-.89-2.61.26-4.49,1.25-6.77,3.51-8.12,9.87-13.41,16.84-18.27a65,65,0,0,0,11.39-9.5c1.52-1.68,2.42-3.44,1.72-5.62-.74-2.34-2.64-3.25-5-3.61a166.6,166.6,0,0,1-25-5.37,3.72,3.72,0,0,0-1.32-.38c-6.64.49-11.7-3-17.08-6.18-5.05-3-10.55-5.12-13.37-10.88-1-2-2.81-1.7-4.32-.28a13.49,13.49,0,0,0-3,3.77c-1.81,3.83-5.15,5.11-8.89,5.74a26.68,26.68,0,0,0-8.81,2.88c-1.89,1.06-2.37,2-.4,3.51,4.66,3.57,4.62,3.6,2.63,9.18a11.47,11.47,0,0,1-5.95,6.85c-3.15,1.52-6.77,1.11-8.79-1.67-2.84-3.91-6.9-6.06-10.84-8.37s-6.79-4.9-8-9.41c-1-3.66-2.61-7.14-3.77-10.76a8.91,8.91,0,0,0-4.82-5.53c-4.73-2.4-9.66-4.38-14.4-6.75a21.74,21.74,0,0,1-7.63-5.8c-1.76-2.21-3.63-2.77-6.2-.81-1.57,1.19-3.21,3.21-5.76,2,.85-1.09,2.73-1.66,1.13-3.78-1-1.28.57-1.49,1.64-1.62,2.43-.3,4.85-.7,7.31-1.06-.14-.4-.14-.66-.28-.78-1-.83-3.45.56-3.24-1.41.27-2.68,2.91-1.25,4.5-1.68C499,267.74,500.12,267,500.32,268.77Z" style="fill:#ada89b"/><path d="M801.81,151.77a31,31,0,0,0,4.67,10.59c1.28,1.75.8,2.89-1,3.43a8.24,8.24,0,0,0-6.25,6.92A13.8,13.8,0,0,0,801.16,183c3.36,5.15,8.49,8.66,12.8,12.94a2.32,2.32,0,0,0,3.66-.07c.91-1,2-1.45,2.7.1,1.63,3.46,2.5,7.16,1.43,10.89-.87,3.06-2.28,3-4.65,1.07-1.7-1.4-3.47-3-5.79-3.52-3.23-.72-5.26,1.28-4.42,4.5,1.34,5.11,2.57,10.33,6.83,14,1.21,1,1.25,2.68,2.08,3.91,1.16,1.72,2.54,3.24,4.82,2.25,2-.87,2.63-2.27,2.07-4.73-1.22-5.31,0-7.24,3.89-7.83,1.44-.22,2.07.32,2.11,1.49.11,3,1.48,5.77,1.92,8.72a3.27,3.27,0,0,1-.27,2.64c-2.07,2.82-.61,5.48.86,7.68,3.77,5.64,5.26,11.33,2.24,17.79-1.33,2.86-.53,6.1-1.12,9.15a41.88,41.88,0,0,1-3.21,10.85c-2.57,5.2-6.18,5.66-10.25,1.67a43.19,43.19,0,0,0-9.19-6.57,3.59,3.59,0,0,0-3.9.24c-1.45.87-.94,2-.68,3.3.7,3.57-6.27,7.7-10.18,5.83-2-1-5.1-1.72-3.8-5.41.46-1.29-1-1.64-1.84-2.1-1.86-1-3.58-2.06-4-4.37-.12-.68-.35-1.41-1.26-1.35a1.76,1.76,0,0,0-1.5,1.26,13.34,13.34,0,0,0-.81,5.06c0,4-2.56,5.5-6.25,4-1.78-.75-2.93-2.17-4.32-3.37-1.9-1.65-3.74-2.1-5.52.32a35.12,35.12,0,0,1-3.11,3.24c-.94,1-1.88,2-3.23,3.38,0-4.51-2.88-5.65-6.18-6.15-4.56-.67-8.85-3.49-13.72-1.75-.42.16-1,0-1.32.29-3.51,3.51-6.8,1.65-10-.38a6.35,6.35,0,0,0-6.84-.29c-1.87,1-3.52.91-4.23-1.59a8.87,8.87,0,0,0-1.09-1.75c-2.46-4.15-3.92-4.52-7.34-1.34-2,1.85-3.09,2.24-3.85-.86-.29-1.19-1-2.57-2.41-2.64s-1.53,1.5-2.13,2.42c-2.7,4.14-6.75,6.09-11.43,6.94a34.25,34.25,0,0,0-6.7,1.46c-.58.23-1.26.86-1.75-.07a1.3,1.3,0,0,1,.41-1.57,9.91,9.91,0,0,0,2.54-4.06c.77-1.92.61-3.29-2.07-3.4-4.51-.19-5.53-2.36-3.11-6.22,2-3.11,4.8-5.54,6.59-8.81,2-3.72,3.36-7.24,2-11.7-1.55-5,.52-9.31,4.3-12.65,3.24-2.86,6.3-6.28,7.83-9.91s4.31-6.52,5.76-10.13c1.27-3.16,4.59-4,6.8-6,1.64-1.55,4.07-3,.56-5.17-1.09-.68-.55-1.62.12-2.33a5.19,5.19,0,0,1,4-1.66c4.6.13,8.38-2,12.21-4.17,7.63-4.42,14.47-9.69,19.65-16.95.6-.83,1.51-1.47,1.3-2.67-.16-.89-.8-.53-1.34-.48-1.23.11-2.58-.08-2.89,1.71-.38,2.2-2,3.42-3.68,4.71A58.73,58.73,0,0,1,723,182.37a8.24,8.24,0,0,1-4.92.36c2.86-6.31,8.33-10.11,13.32-14.31a12.94,12.94,0,0,0,3.7-4.88c.8-1.89-.26-3.07-1.55-4.14-1.57-1.31-2.5-.07-3.48.91a19.54,19.54,0,0,0-1.66,1.75c-1.58,2.08-3.87,3.09-6.05,2a8.26,8.26,0,0,1-4.1-5.67c-.46-2.1,2-4.08,4.27-3.62,1,.19,2.25,1.11,2.78,0s-.34-2.41-.88-3.55a1.94,1.94,0,0,0-2.47-1.3c-1.54.4-3.09.82-4.66,1.11-2,.38-3.55-.17-3.27-2.62.22-1.95-.63-2.93-2.34-3.66-1.17-.49-2.29-1.45-1.54-3s2-2,3.77-1.41c3.89,1.27,4.85.38,4.13-3.65-.94-5.37-.91-5.66-6.39-6.23-4.41-.47-5.64-4.54-5.9-9.87-.16-3.19,3-5.44,7-5.44,2.87,0,5.3-.54,7.18-3.18,1.39-2,4.13-1.87,6.31-2.26,3.68-.66,6.88-2.39,10.22-3.84.61-.26,1.39-.73,1.57-1.28,1-3,3.07-4.33,6.13-4.47s5.72,1.42,8.39,2.7a18,18,0,0,1,2.27,1.56c.72.49,2,.71,2.2.14,1.24-3.8,3.54-1.47,5.46-1.07a21.55,21.55,0,0,0,5.12.63c.78,0,2,0,2.27.41,2,3.43,5.18,2.22,8,2.39,1.82.1,3.77-.33,4.7,1.93.47,1.14,1.56.91,2.4.79a6.87,6.87,0,0,1,7.15,3.23c2,3.22,5.45,4.8,7.94,7.48,1.93,2.1,1.66,4.39,1.9,6.73-.35,2,0,4-.86,6-2.69,1-4.43-1-6.35-2.13-3.43-2-6.58-4.53-10.28-6.08-1.7-.7-3.51-.84-4.85.43a63.09,63.09,0,0,0-11.2,14.34,37.37,37.37,0,0,1-3.85,6.13c-2.22,2.76-2,5.21.87,7.25a6.94,6.94,0,0,0,4.2,1.36,126.58,126.58,0,0,1,16.16,1.26,5.82,5.82,0,0,0,5.58-2.08c1.86-2.43,4.33-4.09,6.66-6,.86-.34,1.34.14,1.72.81Z" style="fill:#292b34"/><path d="M487,278.29a9.2,9.2,0,0,0,6-3.12c2.65-2.76,4.9-1.08,6,.57,3.41,5.13,9,6.62,13.89,9.23,3.13,1.67,6.48,2.95,9.69,4.47a7.59,7.59,0,0,1,3.9,4.55c1.52,4.2,3.34,8.34,4.37,12.66.87,3.69,3.33,5.54,6.14,7.33s5.83,3.65,8.76,5.46A3.85,3.85,0,0,1,547.5,321c1.46,3.17,3.94,4.92,7.44,4.29,3.83-.69,6.09-3.42,7.46-6.93.41-1.06.63-2.2,1.05-3.25.73-1.87.78-3.34-1.61-3.95a6.29,6.29,0,0,1-1.78-1c-3.36-2.23-3.35-3.15.31-5,2.53-1.27,5-2.67,8-2.73,5.37-.1,8.42-3.67,11.22-7.78,3.33-4.89,5.31-4.88,8,.2s8.1,6.46,12.56,9.09c.1.06.26,0,.33.1,5.71,6.32,14.05,5.23,21.2,7.34A117.34,117.34,0,0,0,644,315.77a5.51,5.51,0,0,1,4.75,4,6.31,6.31,0,0,1-1.81,6.61c-5.09,5.16-11,9.3-16.89,13.4-5,3.45-8.14,8.19-10.93,13.4-1.36,2.53-2.36,4.52-1.59,7.78.88,3.71-1.07,7.37-4.11,10.07-2.4,2.14-4.92,4.21-5,7.83a7.12,7.12,0,0,0-.13,1.7c1.67,7.09,3,14.27,8,20.11,1.13,1.32,2.75,1,3.62,2.21-5.41,2.11-9.29-1.4-13.09-4.05-4.38-3.06-9.26-4.56-14.27-5.57-4.62-.93-8.77-3.41-13.54-3.71-1-.06-1.26-1.25-1.75-2-3.7-5.69-7.93-10.65-14.17-14-5.32-2.83-10.34-6.4-13.13-12.25a9.51,9.51,0,0,1-1.27-4.85c.31-4.91-.58-9.87.6-14.76.12-.5,0-1.43-.26-1.61-3.08-1.8-5.27-4.93-9.43-5.13-6-.3-11.59-2.74-17.24-4.65-.09-2-1.65-2.94-2.83-4.16-2.47-2.57-5.13-5-7.44-7.69-1-1.21-2.32-2.27-3.86-1.14-2.72,2-5.37.87-7.88-.08-4.83-1.85-9.54-4-14.24-6.2-4.36-2-4.69-8.23-.69-11,3.3-2.27,3.37-2.48-.11-3.95s-6.86-3.2-6.3-7.82,2.5-8.12,7.23-9.52a1.36,1.36,0,0,0,.86-.47Z" style="fill:#d6d3c1"/><path d="M487.05,278.3c-1.64,2.14-4.62,2.63-5.88,5.5-2.6,5.94-2,8.26,3.58,11s5.62,2.78.42,6.31c-2.28,1.55-2.35,7.69.15,8.66,6.38,2.48,12.24,6.25,19.06,7.64.92.19,1.91.66,2.54-.23,2.06-2.94,4.08-1.41,5.53.32a119,119,0,0,0,9.89,10.07c1.28,1.21,1.61,1.82,0,2.72-5.66-2.81-11.36-5.56-17-8.46a8.78,8.78,0,0,0-6.94-.86,19.11,19.11,0,0,1-12.83-.29c-3.44-1.35-7.35-.2-10.82-1.69-.66-2.11,1-1.94,2.07-1.85a43.32,43.32,0,0,1,5.95.57c-6.79-3.73-15.46-2.78-23.46-4.9a5.84,5.84,0,0,1-2-.58c-7.37,1-14.74,2-22.11,3.07q-17.85,2.58-35.68,5.22l-5.1.72c-7.13.48-13.86,3.1-20.9,4q-19.32,2.43-38.74,4.17c-3.74.34-7.46-.94-10.87-2.72-.16-2.87,2.21-3.25,4.07-4.12,1.55.64,2.92-.12,4.34-.54,20.86-6.16,41.32-13.74,62.87-17.42,1.24-.22,2.48-.49,3.73-.67-21.62,2.48-43.71,2-64.56,9.78.33,1.32,1.33.89,2,1.11s2,.24,1.87,1.13c-.12,1.32-1.31,1.33-2.4,1.07-2.93.72-5.5,2.54-8.84,2.12-2.73-.34-5.44,0-7.55-2.4-.92-1.06-2.4-1-3.87-.77a26.75,26.75,0,0,1-11.26-.42c-1.46-.39-2.78-1.11-2.92-2.52s1.35-1.95,2.57-2.37a186.24,186.24,0,0,1,29.85-7.48c19.9-3.34,39.76-7,59.66-10.37,2-.33,3.08-1.81,4.83-2.44,8.27-3,17.08-3.07,25.51-5.12,7.37-1.8,14.89-2.58,22.4-3.53a49,49,0,0,0,7-1.66c8.59-2.42,17.4-4.1,25.55-7.92-.7,2.47,1.26,1.06,2,1.34.59.22,1.53-.23,1.79.58s-.57,1.48-1.22,1.83a13.55,13.55,0,0,1-2.89,1c-1.1.3-2.23.47-3.35.71a3.38,3.38,0,0,0-2.83,4.06c.41,1.65,2.7,1,3.92.68a37.77,37.77,0,0,0,6.27-2.75C484,278.94,485.34,278.05,487.05,278.3Z" style="fill:#ada89b"/><path d="M663.31,125.41a2.16,2.16,0,0,1-1.58,2.39,7.46,7.46,0,0,0-4,4.06c-3.11,6.41-9.25,10.45-12.79,16.56a16.61,16.61,0,0,0-2.27,7c-.49,4.88.24,9.69.2,14.53,0,1.17.84,1.19,1.66,1.25a12.67,12.67,0,0,0,5.41-.89c1.61-.59,3.23-1.49,5-1.05A2.71,2.71,0,0,0,658.3,168c1.17-1.62,3.2-1.46,4.57-.2s1.92,2.79-.7,3.52c-1.53.43-2.08,1.51-2.16,3.11-.2,4-.27,4-4.06,6.93-.69-.59.37-1.18.21-1.32-2.4-2-2.5-3.7.15-5.77.41-.32-1.86-2.14-3.11-1.51-5.44,2.74-12,3.4-16.24,8.35-.68.78-3.73,0-1.9,2.31.92,1.17,2.06,4.09,4.32,1.34.82,4.74-2.47,6.09-5.69,7.49-1.87.81-4,1.17-5.2,3.12a1.74,1.74,0,0,1-2.5.32c-2.26-1.41-4.89-1.1-7.33-1.64-5.61-1.22-9.52,1.59-12.77,5.77a11.2,11.2,0,0,1-2.18,2.17c-.54.4-1.71.41-1.5-.5.57-2.43-.91-3-2.64-3.59a1.39,1.39,0,0,1-1.07-1.57,2.39,2.39,0,0,1,2-2.16,3.64,3.64,0,0,0,3.36-2.49c.4-1,1-.86,1.94-.6a9.9,9.9,0,0,0,10.74-4c.57-.8.33-1.57-.28-1.64-1.82-.23-1.64-4-4.17-2.45-2.92,1.81-5.67,3.21-8.77.46a1.46,1.46,0,0,0-1.28-.1,63.58,63.58,0,0,0-15.9,9.73c-1.3,1.14-1,2.19.55,2.08.63,0,1.24-.67,2.06.2-2.54,3.17-4.84,6.62-8.07,9.19-1.35,1.07-3,2.29-5,1.39a2.65,2.65,0,0,0-2.28.46C562.88,212,551.79,216.09,541,221c1-3.63,4.52-4.45,7.06-6.11,9-5.89,17.81-12.13,26.86-17.88,6.68-4.25,12.74-9.65,19.74-13,9.23-4.44,15.73-12.1,24-17.47,7.48-4.86,13-11.88,19.9-17.33,3.25-2.54,5.64-6,7.95-9.45C650.73,133.41,656.09,128.26,663.31,125.41Z" style="fill:#ada89b"/><path d="M335.87,317.06l2.78-1.34c-1.91,0-2.94,0-4,0-.85-.06-2.09.38-2.31-.87s.79-2.15,1.94-2.47c3.75-1,7.53-1.89,11.28-2.89,9.87-2.66,19.94-3.62,30.11-4.29,8.42-.56,16.81-1.66,25.26-1.91a3.62,3.62,0,0,1,2.08.61,71.33,71.33,0,0,1-8.85,2,291.54,291.54,0,0,0-40.42,10.59c-7.58,2.5-15.37,4.36-22.81,7.33-1.1.44-2.6.75-3-1.2C330.38,320.39,333.9,319.82,335.87,317.06Z" style="fill:#636b69"/><path d="M799.68,148.38l-1.35-.65c-3.51,2.55-7.76,2.76-11.77,3.61-5.15,1.09-10.21,2.82-15.57,2.78-2.36,0-4.39-.65-5.29-3a4.73,4.73,0,0,1,1.77-5.84c3.59-2,2.52-3.75.47-5.87,0-.91-.39-2.08.34-2.63,4.41-3.32,6.32-8.81,10.72-12.15,1.85-1.4,3.56-1.81,5.53-.44.77,5.12.77,5.1-4.39,7-2.9,1.07-5.91,2-7.45,5.48,3,.78,6.18.67,8.95,2,1.16.58,3.12.43,3.06,2.24s-2,1.94-3.35,2.42-2.85.79-4.53,1.4a3.06,3.06,0,0,0,3.23,1,47.22,47.22,0,0,0,20.19-7.41c.82-.54.56-1,.61-1.64.07-1,.58-1.52,1.59-.74,3.41,2.77,3.38,2.74.45,6C801.26,143.82,798.94,145.35,799.68,148.38Z" style="fill:#c6b69f"/><path d="M802.44,136c-3,1,1.12,1.58,0,2.53a7.14,7.14,0,0,0-3.4,1.26c-5.66,4.64-12.66,5.58-19.44,7.09a3.08,3.08,0,0,1-2-.24c-.94-.5-2.61-.52-2.5-1.93s1.56-1,2.53-1.2c1.79-.4,3.54-.94,5.3-1.43.58-.16,1.12-.47,1.17-1.09.05-.79-.67-.72-1.2-.9-3-1-6-2.34-9.3-2.08-.9.07-2,.18-2.5-.76-.75-1.29.83-1.34,1.23-2,2.13-3.66,6-4.21,9.53-5.52,1.49-.56,4.71-.32,1.73-3.36-1-1-.56-1.9.88-2.16,5.44,1.94,9.66,6,14.88,8.36A16.85,16.85,0,0,0,801,133C801.49,134,802,135,802.44,136Z" style="fill:#e8dedd"/><path d="M539.77,221.82a6.12,6.12,0,0,1-2,4.24c-.72.63-2,1.26-1.09,2.5.75,1.06,1.77.51,2.79.19,7-2.22,13.54-5.61,20.26-8.5,7.15-3.09,14.2-6.41,21.21-9.79,1.58-.76,2.55,0,3.86.49C574.37,215,565.06,221,555.1,225.71a16.61,16.61,0,0,1-3.49,1.42c-1.24.26-2.8.05-2.82,1.79s1.53,1.69,2.81,1.8a5,5,0,0,1,1.18.47,5.19,5.19,0,0,1-6.92.74c-3-1.9-5.5-1.42-8.54.13-8.37,4.28-16.6,8.87-25.34,12.41C520,235.34,529.94,228.68,539.77,221.82Z" style="fill:#aca79a"/><path d="M324,326.72a6.22,6.22,0,0,1,2.39.15c6.67,3.59,13.49.62,20.21.41,5.34-.17,10.64-1.43,16-1.84a184.09,184.09,0,0,0,25.41-3.79,36.74,36.74,0,0,1,6.52-.37c-2.07,1.1-4.44.86-6.61,1.56-12.84,4.13-26.27,5.65-39.44,8.22A31.66,31.66,0,0,1,332.16,330a25.07,25.07,0,0,0-5-1A3.5,3.5,0,0,1,324,326.72Z" style="fill:#cdd2cc"/><path d="M457.35,312.27c9.42,1,19,.87,27.64,5.9-2.65.17-5.27.72-7.91-.16-1-.32-2.12-.59-2.33,1-4.63-1.57-9.28-3.08-13.87-4.74A21.84,21.84,0,0,1,457.35,312.27Z" style="fill:#d2cab6"/><path d="M781.68,362c1.5-3.95,4.73-6.68,7.18-9.94,4-5.31,8.28-10.37,12.49-15.5a10.93,10.93,0,0,1,1.87-1.47c-1.13,4.18-4.34,6.94-6.88,10.17-4.05,5.13-7.54,10.72-12.52,15.07C783.14,360.94,782.67,361.81,781.68,362Z" style="fill:#dccfb6"/><path d="M601.63,266.43c2.32,2,5.21,1.79,7.91,2.27,2.31.4,2.62.94,1.25,2.81,3.73-.19,6.57-2.32,9.72-3.54.86-.33,1.69-.93,2.45.1a1.45,1.45,0,0,1,0,1.92c-4.53,4.11-7.72,9.89-14.25,11.56-1.38.35-2.68.54-3.87-.54-3.21-2.91-6.89-3.3-11.14-2.79-4.62.56-9.36.16-14.05.15-.66,0-1.48.11-1.74-.74-.35-1.1.65-1.28,1.28-1.71s1.36-.46,1.47-2c-3.74,2.17-6.74,0-9.89-1.23-.82-.33-2-.51-1.9-1.68s1.15-1,1.88-1.06c5.35-.46,10.69-.94,16-1.27,2.59-.17,5.19,0,8.78,0-2.81-2.41-4.31-4.92-7.63-3.76a1.23,1.23,0,0,1-1.51-.49,1.1,1.1,0,0,1,.23-1.54c1.76-1.56,3.07-3.39,5.69-4.14a89.76,89.76,0,0,1,24.75-3.21c1.39,0,2.7-.08,3.52,1.5,1.19,2.3,2.86,2.14,4.86.82,1.55-1,3.89-2.84,5-1.58s-1.17,3-2.15,4.5c-4,6-6.66,7.12-13.67,5.6C610.38,265.45,606.05,266.16,601.63,266.43Z" style="fill:#303131"/><path d="M536.06,247.86c1.58-1.07,1.6,2.22,3.27,1.26a28.1,28.1,0,0,1,3.43-1.59,1.19,1.19,0,0,1,1.44.66,1.43,1.43,0,0,1,0,1.62,3.64,3.64,0,0,1-2.29,1.43c-10.19,2.58-20.38,5.15-30.6,7.62-1.09.26-2.74.84-3.27-.84s.9-2.51,2.23-2.91q11.84-3.57,23.69-7A13.53,13.53,0,0,1,536.06,247.86Z" style="fill:#3e3f3a"/><path d="M500.32,268.77c-.52-.87-1.4-.74-2.22-.81,10-3.06,20.21-5.53,30.49-7.59,8.49-1.7,17-3.38,25.46-5.17a11.7,11.7,0,0,1,4.28-.14c-4.65,2.54-9.27,2.85-13.63,3.87-12.11,2.8-24.31,5.24-36.45,7.93C505.6,267.44,502.77,267.34,500.32,268.77Z" style="fill:#a39e93"/><path d="M507.22,270.84a1.65,1.65,0,0,0-1.51-.81c6.95-2.27,14.23-3,21.3-4.79,10.43-2.56,21.18-3.28,31.69-5.4.17,0,.39.17,1.4.65-3.62.75-6.57,1.4-9.52,2-13.79,2.65-27.52,5.59-41.39,7.76A13.19,13.19,0,0,0,507.22,270.84Z" style="fill:#a19d92"/><path d="M539.68,273.83c8.09-.72,16-3.27,24.38-3.06C561.31,273.59,549.48,275.05,539.68,273.83Z" style="fill:#898b89"/><path d="M534.67,274.32c-2.71.5-5.45,1.44-8.83,0Z" style="fill:#979389"/><path d="M768.4,170.55c2.47-.46,4,1.1,5.64,2.3,3,2.19,5.8,4.85,10,4.61a7.37,7.37,0,0,0,4.17-1.37c2.55-1.89,7.36-.07,8,3a3,3,0,0,1-1,3.12,3.62,3.62,0,0,1-3.9.34c-2.26-.88-5.4-2.93-2.89,2.29.43.89-.23,1.86-1.21,1.05-3.59-3-8.47-.12-12.11-2.79-.21-.16-1,.36-1.46.68-3.57,2.56-5.9,2.29-9.11-1.06s-3.37-5.83-.45-9.52C765.27,171.71,766,169.66,768.4,170.55Z" style="fill:#4b4b55"/><path d="M767.94,139.37c2.16.27,2.85,2.46,4.82,3.29-2.25,1.89-5.23,2.31-6.15,5.35-.87,2.86.27,4.93,3.27,5.2,5.14.48,9.89-1.53,14.82-2.32,4.6-.73,9.09-2.08,13.63-3.16-2,2.9-5.28,4.53-7.35,7.45-1,1.33-3,1.69-4.78,1.44a151.32,151.32,0,0,0-17.42-1.42c-4.67-.12-7.15-3.72-6.91-8.31.11-2.1,2.3-.75,2.71-2.44C765,142.52,766.49,140.86,767.94,139.37Z" style="fill:#86635b"/><path d="M468.41,294.45c-5.92.71-11.53,2.41-17.37,2.92-4.43.39-8.89.36-13.33.87-9,1-18.06.93-27.07,1.62-8.65.66-17.26,1.73-25.89,2.6-4.88.49-9.77,1-14.66,1.39-6.61.55-13.23,1-19.84,1.47a20.77,20.77,0,0,1-2.62-.19c.91-2.41,3.17-2.14,4.64-2.35,9.47-1.41,19-2.69,28.5-3.78,13.37-1.52,26.79-2.63,40.12-4.58,10.16-1.49,20.48-2,30.57-3.78C458,289.49,462.82,293.06,468.41,294.45Z" style="fill:#c9cecb"/><path d="M744.86,130.4a1.84,1.84,0,0,1,0,.62,1.87,1.87,0,0,1-.64,1.1,1.81,1.81,0,0,1-.74.38c-1.49.32-1.59-1-2-1.8-2.75-5.44-8-6.32-12.34-2a1.83,1.83,0,0,1-1.19.56c-.87-.17-.78-.9-.9-1.52a10,10,0,0,1,5.58-4.13C739.35,121.86,744.66,129.51,744.86,130.4Z" style="fill:#636261"/><path d="M743.45,133.21c.19,1.41.69,2.81.08,4.23-2.74,1.84-4.72,5.16-8.76,4.43-.77-.14-1.52-.38-2.28-.57-3.77-3.44-4-5.26-1.53-10.36a2.6,2.6,0,0,1,1.9-.91c.35,0,.71,0,1.07,0,1.72,0,3.37.76,5.11.54C741.06,130.52,741.61,132.93,743.45,133.21Z" style="fill:#04030b"/><path d="M731.76,131.65c-1.52,3.35-.42,6.5.73,9.65-1.67,0-2.47-1.82-4.06-2-.66-2.27-2.45-4.42-.84-7C728.79,130.9,730.05,129.88,731.76,131.65Z" style="fill:#303131"/><path d="M743.45,133.21c-2.08,1.49-2.77-.87-4.09-1.48a2.47,2.47,0,0,0-1-2.32,8.82,8.82,0,0,0-2.77-1.48c-1.62-.79-3-.19-4.27.79-1.21.48-1.81,3.21-3.75,1,0-.28,0-.55,0-.83,1.54-3.7,4.67-4.47,8.13-4s6.18,2.31,7.12,6a13.47,13.47,0,0,0,.63,1.59C743.48,132.73,743.47,133,743.45,133.21Z" style="fill:#303131"/><path d="M727.58,129.74c1.79.46,1.6-1.86,2.91-2.07a6.28,6.28,0,0,1,2.9,2.42.93.93,0,0,1-.23.88l-1.4.68-4.17.66C727.59,131.46,727.58,130.6,727.58,129.74Z" style="fill:#292b34"/><path d="M739.29,128.32a5.42,5.42,0,0,0-3.29-1.5c-1.28.89-4.06.56-2.84,3.49V131h.69a18,18,0,0,0,5.51.76c.75-.12,1.91.2,2.07-.7C741.7,129.55,740.07,129.19,739.29,128.32Z" style="fill:#292b34"/><path d="M736,126.82a3.83,3.83,0,0,1-2.43,3.45,2.45,2.45,0,0,1-1.91-.21,2.83,2.83,0,0,1-1.17-2.39C732.07,125.7,734,125.84,736,126.82Z" style="fill:#4b4b55"/><ellipse cx="732.97" cy="127.27" rx="0.49" ry="0.69" style="fill:#ada89b"/><path d="M296.12,389.52l-24.83,31L118.21,262.3,271.29,104.05l24.83,31.31L172,261.73Z" style="fill:#d6d3c1"/><path d="M904.11,135.36l24.6-31.31L1081.79,262.3,928.71,420.55l-24.6-31,124.14-126.66Z" style="fill:#d6d3c1"/><text transform="translate(292.55 581.57) scale(1.08 1)" style="font-size:192.89906311035156px;fill:#a48179;font-family:CourierNewPSMT, Courier New">junco</text><text transform="translate(110.04 727.21)" style="font-size:89px;fill:#d6d3c1;font-family:CenturyGothic, Century Gothic">DESIGN-DEVELOPMENT</text></g></svg>