<svg xmlns="http://www.w3.org/2000/svg" xmlns:xlink="http://www.w3.org/1999/xlink" viewBox="0 0 1082.14 744"><defs><clipPath id="clip-path" transform="translate(280 15.83)"><rect width="612" height="699.17" style="fill:none"/></clipPath></defs><g id="Layer_2" data-name="Layer 2"><rect x="280" y="15.83" width="612" height="699.17" style="fill:#faae1c"/></g><g id="Layer_1" data-name="Layer 1"><g style="clip-path:url(#clip-path)"><rect x="581.41" y="326.24" width="52.01" height="12.25" rx="5.99" style="fill:#fece75;stroke:#fece75;stroke-miterlimit:10;stroke-width:10.891763844906773px"/><rect x="433.81" y="326.24" width="127.44" height="12.25" rx="5.99" style="fill:#fece75;stroke:#fece75;stroke-miterlimit:10;stroke-width:10.891763844906773px"/><circle cx="626.59" cy="333.08" r="6.84" style="fill:#fee2ac"/><circle cx="587.68" cy="333.08" r="6.84" style="fill:#fee2ac"/><circle cx="554.42" cy="332.37" r="6.84" style="fill:#fee2ac"/><circle cx="441.91" cy="332.37" r="6.84" style="fill:#fee2ac"/><rect x="802.53" y="325.67" width="52.01" height="12.25" rx="5.99" style="fill:#fece75;stroke:#fece75;stroke-miterlimit:10;stroke-width:10.891763844906773px"/><rect x="654.92" y="325.67" width="127.44" height="12.25" rx="5.99" style="fill:#fece75;stroke:#fece75;stroke-miterlimit:10;stroke-width:10.891763844906773px"/><circle cx="775.15" cy="332.37" r="6.84" style="fill:#fee2ac"/><circle cx="849.71" cy="330.8" r="6.84" style="fill:#fee2ac"/><circle cx="808.7" cy="331.33" r="6.84" style="fill:#fee2ac"/><circle cx="661.76" cy="332.37" r="6.84" style="fill:#fee2ac"/><rect x="235.33" y="327.23" width="118.19" height="12.25" rx="5.99" style="fill:#fece75;stroke:#fece75;stroke-miterlimit:10;stroke-width:10.891763844906773px"/><rect x="372.59" y="327.23" width="40.31" height="12.25" rx="5.99" style="fill:#fece75;stroke:#fece75;stroke-miterlimit:10;stroke-width:10.891763844906773px"/><circle cx="243.09" cy="332.95" r="6.84" style="fill:#fee2ac"/><circle cx="379.5" cy="332.81" r="6.84" style="fill:#fee2ac"/><circle cx="346.83" cy="333.33" r="6.84" style="fill:#fee2ac"/><circle cx="408.11" cy="332.81" r="6.84" style="fill:#fee2ac"/><rect x="1024.68" y="325.88" width="52.01" height="12.25" rx="5.99" style="fill:#fece75;stroke:#fece75;stroke-miterlimit:10;stroke-width:10.891763844906773px"/><rect x="877.08" y="325.88" width="127.44" height="12.25" rx="5.99" style="fill:#fece75;stroke:#fece75;stroke-miterlimit:10;stroke-width:10.891763844906773px"/><circle cx="997.31" cy="332.58" r="6.84" style="fill:#fee2ac"/><circle cx="1071.87" cy="331.02" r="6.84" style="fill:#fee2ac"/><circle cx="1030.85" cy="331.54" r="6.84" style="fill:#fee2ac"/><circle cx="883.91" cy="332.58" r="6.84" style="fill:#fee2ac"/><rect x="294.75" y="359.53" width="105.73" height="12.25" rx="5.99" style="fill:#fece75;stroke:#fece75;stroke-miterlimit:10;stroke-width:10.891763844906773px"/><rect x="421.72" y="358.66" width="65.87" height="12.25" rx="5.99" style="fill:#fece75;stroke:#fece75;stroke-miterlimit:10;stroke-width:10.891763844906773px"/><circle cx="428.23" cy="364.79" r="6.84" style="fill:#fee2ac"/><circle cx="395.73" cy="365.66" r="6.84" style="fill:#fee2ac"/><rect x="628.98" y="358.66" width="105.73" height="12.25" rx="5.99" style="fill:#fece75;stroke:#fece75;stroke-miterlimit:10;stroke-width:10.891763844906773px"/><rect x="507.49" y="358.66" width="100.29" height="12.25" rx="5.99" style="fill:#fece75;stroke:#fece75;stroke-miterlimit:10;stroke-width:10.891763844906773px"/><circle cx="301.59" cy="365.49" r="6.84" style="fill:#fee2ac"/><circle cx="482.75" cy="364.79" r="6.84" style="fill:#fee2ac"/><circle cx="514.32" cy="364.79" r="6.84" style="fill:#fee2ac"/><circle cx="600.58" cy="364.78" r="6.84" style="fill:#fee2ac"/><circle cx="636.87" cy="364.79" r="6.84" style="fill:#fee2ac"/><circle cx="727.87" cy="364.79" r="6.84" style="fill:#fee2ac"/><rect x="903.34" y="359.74" width="52.01" height="12.25" rx="5.99" style="fill:#fece75;stroke:#fece75;stroke-miterlimit:10;stroke-width:10.891763844906773px"/><rect x="755.74" y="359.74" width="127.44" height="12.25" rx="5.99" style="fill:#fece75;stroke:#fece75;stroke-miterlimit:10;stroke-width:10.891763844906773px"/><circle cx="875.97" cy="366.44" r="6.84" style="fill:#fee2ac"/><circle cx="950.53" cy="364.88" r="6.84" style="fill:#fee2ac"/><circle cx="909.51" cy="365.4" r="6.84" style="fill:#fee2ac"/><circle cx="762.57" cy="366.44" r="6.84" style="fill:#fee2ac"/><rect x="469.86" y="524.37" width="52.01" height="12.25" rx="5.99" style="fill:#fece75;stroke:#fece75;stroke-miterlimit:10;stroke-width:10.891763844906773px"/><rect x="322.26" y="524.37" width="127.44" height="12.25" rx="5.99" style="fill:#fece75;stroke:#fece75;stroke-miterlimit:10;stroke-width:10.891763844906773px"/><circle cx="442.49" cy="531.06" r="6.84" style="fill:#fee2ac"/><circle cx="517.05" cy="529.5" r="6.84" style="fill:#fee2ac"/><circle cx="476.03" cy="530.02" r="6.84" style="fill:#fee2ac"/><circle cx="329.09" cy="531.06" r="6.84" style="fill:#fee2ac"/><rect x="794.11" y="525.2" width="118.19" height="12.25" rx="5.99" style="fill:#fece75;stroke:#fece75;stroke-miterlimit:10;stroke-width:10.891763844906773px"/><rect x="933.41" y="525.2" width="65.87" height="12.25" rx="5.99" style="fill:#fece75;stroke:#fece75;stroke-miterlimit:10;stroke-width:10.891763844906773px"/><rect x="706.41" y="524.68" width="65.87" height="12.25" rx="5.99" style="fill:#fece75;stroke:#fece75;stroke-miterlimit:10;stroke-width:10.891763844906773px"/><rect x="629.41" y="524.68" width="56.4" height="12.25" rx="5.99" style="fill:#fece75;stroke:#fece75;stroke-miterlimit:10;stroke-width:10.891763844906773px"/><rect x="543.38" y="524.68" width="65.87" height="12.25" rx="5.99" style="fill:#fece75;stroke:#fece75;stroke-miterlimit:10;stroke-width:10.891763844906773px"/><circle cx="635.55" cy="530.8" r="6.84" style="fill:#fee2ac"/><circle cx="603.25" cy="530.87" r="6.84" style="fill:#fee2ac"/><circle cx="712.75" cy="530.87" r="6.84" style="fill:#fee2ac"/><circle cx="679.38" cy="530.87" r="6.84" style="fill:#fee2ac"/><circle cx="549.11" cy="531.33" r="6.84" style="fill:#fee2ac"/><circle cx="765.44" cy="530.8" r="6.84" style="fill:#fee2ac"/><circle cx="800.94" cy="530.8" r="6.84" style="fill:#fee2ac"/><circle cx="905.46" cy="530.8" r="6.84" style="fill:#fee2ac"/><circle cx="940.25" cy="531.33" r="6.84" style="fill:#fee2ac"/><circle cx="992.45" cy="530.8" r="6.84" style="fill:#fee2ac"/><rect x="-178.03" y="509.16" width="52.01" height="12.25" rx="5.99" transform="translate(-24.04 1046.4) rotate(180)" style="fill:#fece75;stroke:#fece75;stroke-miterlimit:10;stroke-width:10.891763844906773px"/><rect x="-105.85" y="509.16" width="127.44" height="12.25" rx="5.99" transform="translate(195.73 1046.4) rotate(180)" style="fill:#fece75;stroke:#fece75;stroke-miterlimit:10;stroke-width:10.891763844906773px"/><circle cx="181.36" cy="530.54" r="6.84" style="fill:#fee2ac"/><circle cx="106.8" cy="532.11" r="6.84" style="fill:#fee2ac"/><circle cx="147.81" cy="531.59" r="6.84" style="fill:#fee2ac"/><circle cx="294.75" cy="530.54" r="6.84" style="fill:#fee2ac"/><rect x="325.95" y="392.47" width="118.19" height="12.25" rx="5.99" style="fill:#fece75;stroke:#fece75;stroke-miterlimit:10;stroke-width:10.891763844906773px"/><rect x="465.25" y="392.47" width="65.87" height="12.25" rx="5.99" style="fill:#fece75;stroke:#fece75;stroke-miterlimit:10;stroke-width:10.891763844906773px"/><circle cx="437.18" cy="398.48" r="6.84" style="fill:#fee2ac"/><circle cx="472.38" cy="398.16" r="6.84" style="fill:#fee2ac"/><circle cx="526.78" cy="398.68" r="6.84" style="fill:#fee2ac"/><circle cx="334.03" cy="398.68" r="6.84" style="fill:#fee2ac"/><rect x="715.69" y="392.55" width="65.87" height="12.25" rx="5.99" style="fill:#fece75;stroke:#fece75;stroke-miterlimit:10;stroke-width:10.891763844906773px"/><rect x="638.7" y="392.55" width="56.4" height="12.25" rx="5.99" style="fill:#fece75;stroke:#fece75;stroke-miterlimit:10;stroke-width:10.891763844906773px"/><rect x="552.66" y="392.55" width="65.87" height="12.25" rx="5.99" style="fill:#fece75;stroke:#fece75;stroke-miterlimit:10;stroke-width:10.891763844906773px"/><circle cx="559.5" cy="398.68" r="6.84" style="fill:#fee2ac"/><circle cx="612.02" cy="398.16" r="6.84" style="fill:#fee2ac"/><circle cx="645.53" cy="398.16" r="6.84" style="fill:#fee2ac"/><circle cx="688.26" cy="398.16" r="6.84" style="fill:#fee2ac"/><circle cx="722.53" cy="398.16" r="6.84" style="fill:#fee2ac"/><circle cx="774.73" cy="398.68" r="6.84" style="fill:#fee2ac"/><rect x="946.53" y="392.76" width="52.01" height="12.25" rx="5.99" style="fill:#fece75;stroke:#fece75;stroke-miterlimit:10;stroke-width:10.891763844906773px"/><rect x="798.93" y="392.76" width="127.44" height="12.25" rx="5.99" style="fill:#fece75;stroke:#fece75;stroke-miterlimit:10;stroke-width:10.891763844906773px"/><circle cx="919.16" cy="399.46" r="6.84" style="fill:#fee2ac"/><circle cx="993.72" cy="397.9" r="6.84" style="fill:#fee2ac"/><circle cx="952.7" cy="398.42" r="6.84" style="fill:#fee2ac"/><circle cx="805.77" cy="399.46" r="6.84" style="fill:#fee2ac"/><rect x="-173.81" y="376.51" width="52.01" height="12.25" rx="5.99" transform="translate(-15.6 781.11) rotate(180)" style="fill:#fece75;stroke:#fece75;stroke-miterlimit:10;stroke-width:10.891763844906773px"/><rect x="-101.63" y="376.51" width="127.44" height="12.25" rx="5.99" transform="translate(204.18 781.11) rotate(180)" style="fill:#fece75;stroke:#fece75;stroke-miterlimit:10;stroke-width:10.891763844906773px"/><circle cx="185.58" cy="397.9" r="6.84" style="fill:#fee2ac"/><circle cx="111.02" cy="399.46" r="6.84" style="fill:#fee2ac"/><circle cx="152.04" cy="398.94" r="6.84" style="fill:#fee2ac"/><circle cx="298.97" cy="397.9" r="6.84" style="fill:#fee2ac"/><rect x="441.18" y="425.57" width="105.73" height="12.25" rx="5.99" style="fill:#fece75;stroke:#fece75;stroke-miterlimit:10;stroke-width:10.891763844906773px"/><rect x="319.69" y="425.57" width="100.29" height="12.25" rx="5.99" style="fill:#fece75;stroke:#fece75;stroke-miterlimit:10;stroke-width:10.891763844906773px"/><circle cx="447.87" cy="431.69" r="6.84" style="fill:#fee2ac"/><circle cx="414.15" cy="432.04" r="6.84" style="fill:#fee2ac"/><rect x="566.71" y="425.91" width="112.74" height="12.25" rx="5.99" style="fill:#fece75;stroke:#fece75;stroke-miterlimit:10;stroke-width:10.891763844906773px"/><circle cx="325.95" cy="432.04" r="6.84" style="fill:#fee2ac"/><circle cx="540.08" cy="431.69" r="6.84" style="fill:#fee2ac"/><circle cx="574" cy="431.69" r="6.84" style="fill:#fee2ac"/><circle cx="672.62" cy="431.69" r="6.84" style="fill:#fee2ac"/><rect x="847.73" y="425.78" width="52.01" height="12.25" rx="5.99" style="fill:#fece75;stroke:#fece75;stroke-miterlimit:10;stroke-width:10.891763844906773px"/><rect x="700.13" y="425.78" width="127.44" height="12.25" rx="5.99" style="fill:#fece75;stroke:#fece75;stroke-miterlimit:10;stroke-width:10.891763844906773px"/><circle cx="820.36" cy="432.48" r="6.84" style="fill:#fee2ac"/><circle cx="894.92" cy="430.92" r="6.84" style="fill:#fee2ac"/><circle cx="853.9" cy="431.44" r="6.84" style="fill:#fee2ac"/><circle cx="706.96" cy="432.48" r="6.84" style="fill:#fee2ac"/><rect x="120.03" y="425.86" width="118.19" height="12.25" rx="5.99" style="fill:#fece75;stroke:#fece75;stroke-miterlimit:10;stroke-width:10.891763844906773px"/><rect x="257.29" y="425.86" width="40.31" height="12.25" rx="5.99" style="fill:#fece75;stroke:#fece75;stroke-miterlimit:10;stroke-width:10.891763844906773px"/><circle cx="127.79" cy="431.58" r="6.84" style="fill:#fee2ac"/><circle cx="264.2" cy="431.44" r="6.84" style="fill:#fee2ac"/><circle cx="231.52" cy="431.96" r="6.84" style="fill:#fee2ac"/><circle cx="292.8" cy="431.44" r="6.84" style="fill:#fee2ac"/><rect x="373.05" y="491.38" width="118.19" height="12.25" rx="5.99" style="fill:#fece75;stroke:#fece75;stroke-miterlimit:10;stroke-width:10.891763844906773px"/><rect x="510.31" y="491.38" width="40.31" height="12.25" rx="5.99" style="fill:#fece75;stroke:#fece75;stroke-miterlimit:10;stroke-width:10.891763844906773px"/><rect x="313.26" y="491.38" width="41.54" height="12.25" rx="5.99" style="fill:#fece75;stroke:#fece75;stroke-miterlimit:10;stroke-width:10.891763844906773px"/><circle cx="380.81" cy="497.1" r="6.84" style="fill:#fee2ac"/><circle cx="517.22" cy="496.96" r="6.84" style="fill:#fee2ac"/><circle cx="348.11" cy="497.31" r="6.84" style="fill:#fee2ac"/><circle cx="484.55" cy="497.48" r="6.84" style="fill:#fee2ac"/><circle cx="319.11" cy="497.51" r="6.84" style="fill:#fee2ac"/><circle cx="545.83" cy="496.96" r="6.84" style="fill:#fee2ac"/><rect x="694.45" y="491.58" width="105.73" height="12.25" rx="5.99" style="fill:#fece75;stroke:#fece75;stroke-miterlimit:10;stroke-width:10.891763844906773px"/><rect x="572.97" y="491.58" width="100.29" height="12.25" rx="5.99" style="fill:#fece75;stroke:#fece75;stroke-miterlimit:10;stroke-width:10.891763844906773px"/><circle cx="701.15" cy="497.7" r="6.84" style="fill:#fee2ac"/><circle cx="667.43" cy="498.04" r="6.84" style="fill:#fee2ac"/><rect x="819.99" y="491.92" width="112.74" height="12.25" rx="5.99" style="fill:#fece75;stroke:#fece75;stroke-miterlimit:10;stroke-width:10.891763844906773px"/><circle cx="579.22" cy="498.04" r="6.84" style="fill:#fee2ac"/><circle cx="793.35" cy="497.7" r="6.84" style="fill:#fee2ac"/><circle cx="827.28" cy="497.7" r="6.84" style="fill:#fee2ac"/><circle cx="925.9" cy="497.7" r="6.84" style="fill:#fee2ac"/><rect x="113.63" y="491.86" width="118.19" height="12.25" rx="5.99" style="fill:#fece75;stroke:#fece75;stroke-miterlimit:10;stroke-width:10.891763844906773px"/><rect x="250.89" y="491.86" width="40.31" height="12.25" rx="5.99" style="fill:#fece75;stroke:#fece75;stroke-miterlimit:10;stroke-width:10.891763844906773px"/><circle cx="121.4" cy="497.58" r="6.84" style="fill:#fee2ac"/><circle cx="257.8" cy="497.43" r="6.84" style="fill:#fee2ac"/><circle cx="225.13" cy="497.96" r="6.84" style="fill:#fee2ac"/><circle cx="286.41" cy="497.43" r="6.84" style="fill:#fee2ac"/><rect x="570.94" y="458.59" width="118.19" height="12.25" rx="5.99" style="fill:#fece75;stroke:#fece75;stroke-miterlimit:10;stroke-width:10.891763844906773px"/><rect x="710.25" y="458.59" width="65.87" height="12.25" rx="5.99" style="fill:#fece75;stroke:#fece75;stroke-miterlimit:10;stroke-width:10.891763844906773px"/><rect x="483.24" y="458.07" width="65.87" height="12.25" rx="5.99" style="fill:#fece75;stroke:#fece75;stroke-miterlimit:10;stroke-width:10.891763844906773px"/><rect x="406.25" y="458.07" width="56.4" height="12.25" rx="5.99" style="fill:#fece75;stroke:#fece75;stroke-miterlimit:10;stroke-width:10.891763844906773px"/><rect x="320.21" y="458.07" width="65.87" height="12.25" rx="5.99" style="fill:#fece75;stroke:#fece75;stroke-miterlimit:10;stroke-width:10.891763844906773px"/><circle cx="412.39" cy="464.2" r="6.84" style="fill:#fee2ac"/><circle cx="380.09" cy="464.26" r="6.84" style="fill:#fee2ac"/><circle cx="489.59" cy="464.26" r="6.84" style="fill:#fee2ac"/><circle cx="456.22" cy="464.26" r="6.84" style="fill:#fee2ac"/><circle cx="325.95" cy="464.72" r="6.84" style="fill:#fee2ac"/><circle cx="542.28" cy="464.2" r="6.84" style="fill:#fee2ac"/><circle cx="577.78" cy="464.2" r="6.84" style="fill:#fee2ac"/><circle cx="682.29" cy="464.2" r="6.84" style="fill:#fee2ac"/><circle cx="717.08" cy="464.72" r="6.84" style="fill:#fee2ac"/><circle cx="769.28" cy="464.2" r="6.84" style="fill:#fee2ac"/><rect x="-178.03" y="442.55" width="52.01" height="12.25" rx="5.99" transform="translate(-24.04 913.19) rotate(180)" style="fill:#fece75;stroke:#fece75;stroke-miterlimit:10;stroke-width:10.891763844906773px"/><rect x="-105.85" y="442.55" width="127.44" height="12.25" rx="5.99" transform="translate(195.73 913.19) rotate(180)" style="fill:#fece75;stroke:#fece75;stroke-miterlimit:10;stroke-width:10.891763844906773px"/><circle cx="181.36" cy="463.94" r="6.84" style="fill:#fee2ac"/><circle cx="106.8" cy="465.5" r="6.84" style="fill:#fee2ac"/><circle cx="147.81" cy="464.98" r="6.84" style="fill:#fee2ac"/><circle cx="294.75" cy="463.94" r="6.84" style="fill:#fee2ac"/><rect x="798.28" y="458.88" width="118.19" height="12.25" rx="5.99" style="fill:#fece75;stroke:#fece75;stroke-miterlimit:10;stroke-width:10.891763844906773px"/><rect x="935.54" y="458.88" width="40.31" height="12.25" rx="5.99" style="fill:#fece75;stroke:#fece75;stroke-miterlimit:10;stroke-width:10.891763844906773px"/><circle cx="806.04" cy="464.6" r="6.84" style="fill:#fee2ac"/><circle cx="942.45" cy="464.46" r="6.84" style="fill:#fee2ac"/><circle cx="909.77" cy="464.98" r="6.84" style="fill:#fee2ac"/><circle cx="971.05" cy="464.46" r="6.84" style="fill:#fee2ac"/><rect x="371.92" y="558.22" width="112.74" height="12.25" rx="5.99" style="fill:#fece75;stroke:#fece75;stroke-miterlimit:10;stroke-width:10.891763844906773px"/><circle cx="380.09" cy="563.95" r="6.84" style="fill:#fee2ac"/><circle cx="477.71" cy="564.35" r="6.84" style="fill:#fee2ac"/><rect x="299.64" y="558.43" width="52.01" height="12.25" rx="5.99" style="fill:#fece75;stroke:#fece75;stroke-miterlimit:10;stroke-width:10.891763844906773px"/><rect x="152.04" y="558.43" width="127.44" height="12.25" rx="5.99" style="fill:#fece75;stroke:#fece75;stroke-miterlimit:10;stroke-width:10.891763844906773px"/><circle cx="272.26" cy="565.13" r="6.84" style="fill:#fee2ac"/><circle cx="346.83" cy="563.56" r="6.84" style="fill:#fee2ac"/><circle cx="305.81" cy="564.09" r="6.84" style="fill:#fee2ac"/><circle cx="158.87" cy="565.13" r="6.84" style="fill:#fee2ac"/><rect x="506.61" y="558.72" width="118.19" height="12.25" rx="5.99" style="fill:#fece75;stroke:#fece75;stroke-miterlimit:10;stroke-width:10.891763844906773px"/><rect x="643.87" y="558.72" width="40.31" height="12.25" rx="5.99" style="fill:#fece75;stroke:#fece75;stroke-miterlimit:10;stroke-width:10.891763844906773px"/><circle cx="514.37" cy="564.44" r="6.84" style="fill:#fee2ac"/><circle cx="650.78" cy="564.3" r="6.84" style="fill:#fee2ac"/><circle cx="618.11" cy="564.82" r="6.84" style="fill:#fee2ac"/><circle cx="679.39" cy="564.3" r="6.84" style="fill:#fee2ac"/><rect x="427.24" y="542.39" width="52.01" height="12.25" rx="5.99" transform="translate(1186.49 1112.86) rotate(180)" style="fill:#fece75;stroke:#fece75;stroke-miterlimit:10;stroke-width:10.891763844906773px"/><rect x="499.41" y="542.39" width="127.44" height="12.25" rx="5.99" transform="translate(1406.27 1112.86) rotate(180)" style="fill:#fece75;stroke:#fece75;stroke-miterlimit:10;stroke-width:10.891763844906773px"/><circle cx="786.62" cy="563.77" r="6.84" style="fill:#fee2ac"/><circle cx="712.06" cy="565.34" r="6.84" style="fill:#fee2ac"/><circle cx="753.08" cy="564.82" r="6.84" style="fill:#fee2ac"/><circle cx="900.02" cy="563.77" r="6.84" style="fill:#fee2ac"/><rect x="570.24" y="591.73" width="118.19" height="12.25" rx="5.99" style="fill:#fece75;stroke:#fece75;stroke-miterlimit:10;stroke-width:10.891763844906773px"/><rect x="709.54" y="591.73" width="65.87" height="12.25" rx="5.99" style="fill:#fece75;stroke:#fece75;stroke-miterlimit:10;stroke-width:10.891763844906773px"/><rect x="482.54" y="591.2" width="65.87" height="12.25" rx="5.99" style="fill:#fece75;stroke:#fece75;stroke-miterlimit:10;stroke-width:10.891763844906773px"/><rect x="405.54" y="591.2" width="56.4" height="12.25" rx="5.99" style="fill:#fece75;stroke:#fece75;stroke-miterlimit:10;stroke-width:10.891763844906773px"/><rect x="319.51" y="591.2" width="65.87" height="12.25" rx="5.99" style="fill:#fece75;stroke:#fece75;stroke-miterlimit:10;stroke-width:10.891763844906773px"/><circle cx="411.69" cy="597.33" r="6.84" style="fill:#fee2ac"/><circle cx="379.39" cy="597.4" r="6.84" style="fill:#fee2ac"/><circle cx="488.88" cy="597.4" r="6.84" style="fill:#fee2ac"/><circle cx="455.51" cy="597.4" r="6.84" style="fill:#fee2ac"/><circle cx="325.25" cy="597.85" r="6.84" style="fill:#fee2ac"/><circle cx="541.58" cy="597.33" r="6.84" style="fill:#fee2ac"/><circle cx="577.07" cy="597.33" r="6.84" style="fill:#fee2ac"/><circle cx="681.59" cy="597.33" r="6.84" style="fill:#fee2ac"/><circle cx="716.38" cy="597.85" r="6.84" style="fill:#fee2ac"/><circle cx="768.58" cy="597.33" r="6.84" style="fill:#fee2ac"/><rect x="-178.03" y="575.69" width="52.01" height="12.25" rx="5.99" transform="translate(-24.04 1179.45) rotate(180)" style="fill:#fece75;stroke:#fece75;stroke-miterlimit:10;stroke-width:10.891763844906773px"/><rect x="-105.85" y="575.69" width="127.44" height="12.25" rx="5.99" transform="translate(195.73 1179.45) rotate(180)" style="fill:#fece75;stroke:#fece75;stroke-miterlimit:10;stroke-width:10.891763844906773px"/><circle cx="181.36" cy="597.07" r="6.84" style="fill:#fee2ac"/><circle cx="106.8" cy="598.63" r="6.84" style="fill:#fee2ac"/><circle cx="147.81" cy="598.11" r="6.84" style="fill:#fee2ac"/><circle cx="294.75" cy="597.07" r="6.84" style="fill:#fee2ac"/><rect x="857.19" y="591.22" width="118.19" height="12.25" rx="5.99" style="fill:#fece75;stroke:#fece75;stroke-miterlimit:10;stroke-width:10.891763844906773px"/><rect x="994.45" y="591.22" width="40.31" height="12.25" rx="5.99" style="fill:#fece75;stroke:#fece75;stroke-miterlimit:10;stroke-width:10.891763844906773px"/><rect x="797.4" y="591.22" width="41.54" height="12.25" rx="5.99" style="fill:#fece75;stroke:#fece75;stroke-miterlimit:10;stroke-width:10.891763844906773px"/><circle cx="864.95" cy="596.94" r="6.84" style="fill:#fee2ac"/><circle cx="1001.36" cy="596.8" r="6.84" style="fill:#fee2ac"/><circle cx="832.25" cy="597.14" r="6.84" style="fill:#fee2ac"/><circle cx="968.69" cy="597.32" r="6.84" style="fill:#fee2ac"/><circle cx="803.25" cy="597.35" r="6.84" style="fill:#fee2ac"/><circle cx="1029.97" cy="596.8" r="6.84" style="fill:#fee2ac"/><rect x="383.08" y="624.41" width="105.73" height="12.25" rx="5.99" style="fill:#fece75;stroke:#fece75;stroke-miterlimit:10;stroke-width:10.891763844906773px"/><rect x="261.59" y="624.41" width="100.29" height="12.25" rx="5.99" style="fill:#fece75;stroke:#fece75;stroke-miterlimit:10;stroke-width:10.891763844906773px"/><circle cx="389.77" cy="630.53" r="6.84" style="fill:#fee2ac"/><circle cx="356.05" cy="630.87" r="6.84" style="fill:#fee2ac"/><rect x="508.61" y="624.75" width="112.74" height="12.25" rx="5.99" style="fill:#fece75;stroke:#fece75;stroke-miterlimit:10;stroke-width:10.891763844906773px"/><circle cx="267.84" cy="630.87" r="6.84" style="fill:#fee2ac"/><circle cx="481.97" cy="630.53" r="6.84" style="fill:#fee2ac"/><circle cx="515.9" cy="630.53" r="6.84" style="fill:#fee2ac"/><circle cx="614.52" cy="630.53" r="6.84" style="fill:#fee2ac"/><rect x="563.65" y="608.71" width="52.01" height="12.25" rx="5.99" transform="translate(1459.31 1245.5) rotate(180)" style="fill:#fece75;stroke:#fece75;stroke-miterlimit:10;stroke-width:10.891763844906773px"/><rect x="635.82" y="608.71" width="127.44" height="12.25" rx="5.99" transform="translate(1679.08 1245.5) rotate(180)" style="fill:#fece75;stroke:#fece75;stroke-miterlimit:10;stroke-width:10.891763844906773px"/><circle cx="923.03" cy="630.09" r="6.84" style="fill:#fee2ac"/><circle cx="848.47" cy="631.66" r="6.84" style="fill:#fee2ac"/><circle cx="889.49" cy="631.13" r="6.84" style="fill:#fee2ac"/><circle cx="1036.43" cy="630.09" r="6.84" style="fill:#fee2ac"/><rect x="643.44" y="624.69" width="118.19" height="12.25" rx="5.99" style="fill:#fece75;stroke:#fece75;stroke-miterlimit:10;stroke-width:10.891763844906773px"/><rect x="780.7" y="624.69" width="40.31" height="12.25" rx="5.99" style="fill:#fece75;stroke:#fece75;stroke-miterlimit:10;stroke-width:10.891763844906773px"/><circle cx="651.2" cy="630.41" r="6.84" style="fill:#fee2ac"/><circle cx="787.61" cy="630.27" r="6.84" style="fill:#fee2ac"/><circle cx="754.93" cy="630.79" r="6.84" style="fill:#fee2ac"/><circle cx="816.22" cy="630.27" r="6.84" style="fill:#fee2ac"/><rect x="472.95" y="657.54" width="118.19" height="12.25" rx="5.99" style="fill:#fece75;stroke:#fece75;stroke-miterlimit:10;stroke-width:10.891763844906773px"/><rect x="610.22" y="657.54" width="40.31" height="12.25" rx="5.99" style="fill:#fece75;stroke:#fece75;stroke-miterlimit:10;stroke-width:10.891763844906773px"/><rect x="413.17" y="657.54" width="41.54" height="12.25" rx="5.99" style="fill:#fece75;stroke:#fece75;stroke-miterlimit:10;stroke-width:10.891763844906773px"/><circle cx="480.72" cy="663.26" r="6.84" style="fill:#fee2ac"/><circle cx="617.13" cy="663.11" r="6.84" style="fill:#fee2ac"/><circle cx="448.01" cy="663.46" r="6.84" style="fill:#fee2ac"/><circle cx="584.45" cy="663.63" r="6.84" style="fill:#fee2ac"/><circle cx="419.02" cy="663.66" r="6.84" style="fill:#fee2ac"/><circle cx="645.73" cy="663.11" r="6.84" style="fill:#fee2ac"/><rect x="794.36" y="657.74" width="105.73" height="12.25" rx="5.99" style="fill:#fece75;stroke:#fece75;stroke-miterlimit:10;stroke-width:10.891763844906773px"/><rect x="672.87" y="657.74" width="100.29" height="12.25" rx="5.99" style="fill:#fece75;stroke:#fece75;stroke-miterlimit:10;stroke-width:10.891763844906773px"/><circle cx="801.05" cy="663.85" r="6.84" style="fill:#fee2ac"/><circle cx="767.33" cy="664.2" r="6.84" style="fill:#fee2ac"/><rect x="919.89" y="658.07" width="112.74" height="12.25" rx="5.99" style="fill:#fece75;stroke:#fece75;stroke-miterlimit:10;stroke-width:10.891763844906773px"/><circle cx="679.13" cy="664.2" r="6.84" style="fill:#fee2ac"/><circle cx="893.25" cy="663.85" r="6.84" style="fill:#fee2ac"/><circle cx="927.18" cy="663.85" r="6.84" style="fill:#fee2ac"/><circle cx="1025.8" cy="663.85" r="6.84" style="fill:#fee2ac"/><rect x="213.54" y="658.01" width="118.19" height="12.25" rx="5.99" style="fill:#fece75;stroke:#fece75;stroke-miterlimit:10;stroke-width:10.891763844906773px"/><rect x="350.8" y="658.01" width="40.31" height="12.25" rx="5.99" style="fill:#fece75;stroke:#fece75;stroke-miterlimit:10;stroke-width:10.891763844906773px"/><circle cx="221.3" cy="663.73" r="6.84" style="fill:#fee2ac"/><circle cx="357.71" cy="663.59" r="6.84" style="fill:#fee2ac"/><circle cx="325.03" cy="664.11" r="6.84" style="fill:#fee2ac"/><circle cx="386.31" cy="663.59" r="6.84" style="fill:#fee2ac"/><rect x="623.3" y="29.32" width="118.19" height="12.25" rx="5.99" style="fill:#fece75;stroke:#fece75;stroke-miterlimit:10;stroke-width:10.891763844906773px"/><rect x="762.61" y="29.32" width="65.87" height="12.25" rx="5.99" style="fill:#fece75;stroke:#fece75;stroke-miterlimit:10;stroke-width:10.891763844906773px"/><rect x="535.6" y="28.8" width="65.87" height="12.25" rx="5.99" style="fill:#fece75;stroke:#fece75;stroke-miterlimit:10;stroke-width:10.891763844906773px"/><rect x="458.61" y="28.8" width="56.4" height="12.25" rx="5.99" style="fill:#fece75;stroke:#fece75;stroke-miterlimit:10;stroke-width:10.891763844906773px"/><rect x="372.58" y="28.8" width="65.87" height="12.25" rx="5.99" style="fill:#fece75;stroke:#fece75;stroke-miterlimit:10;stroke-width:10.891763844906773px"/><circle cx="464.75" cy="34.93" r="6.84" style="fill:#fee2ac"/><circle cx="432.45" cy="34.99" r="6.84" style="fill:#fee2ac"/><circle cx="541.95" cy="34.99" r="6.84" style="fill:#fee2ac"/><circle cx="508.58" cy="34.99" r="6.84" style="fill:#fee2ac"/><circle cx="378.31" cy="35.45" r="6.84" style="fill:#fee2ac"/><circle cx="594.64" cy="34.93" r="6.84" style="fill:#fee2ac"/><circle cx="630.14" cy="34.93" r="6.84" style="fill:#fee2ac"/><circle cx="734.65" cy="34.93" r="6.84" style="fill:#fee2ac"/><circle cx="769.44" cy="35.45" r="6.84" style="fill:#fee2ac"/><circle cx="821.64" cy="34.93" r="6.84" style="fill:#fee2ac"/><rect x="-125.67" y="13.28" width="52.01" height="12.25" rx="5.99" transform="translate(80.68 54.65) rotate(180)" style="fill:#fece75;stroke:#fece75;stroke-miterlimit:10;stroke-width:10.891763844906773px"/><rect x="-53.49" y="13.28" width="127.44" height="12.25" rx="5.99" transform="translate(300.46 54.65) rotate(180)" style="fill:#fece75;stroke:#fece75;stroke-miterlimit:10;stroke-width:10.891763844906773px"/><circle cx="233.72" cy="34.67" r="6.84" style="fill:#fee2ac"/><circle cx="159.16" cy="36.23" r="6.84" style="fill:#fee2ac"/><circle cx="200.18" cy="35.71" r="6.84" style="fill:#fee2ac"/><circle cx="347.11" cy="34.67" r="6.84" style="fill:#fee2ac"/><rect x="850.64" y="29.61" width="118.19" height="12.25" rx="5.99" style="fill:#fece75;stroke:#fece75;stroke-miterlimit:10;stroke-width:10.891763844906773px"/><rect x="987.9" y="29.61" width="40.31" height="12.25" rx="5.99" style="fill:#fece75;stroke:#fece75;stroke-miterlimit:10;stroke-width:10.891763844906773px"/><circle cx="858.4" cy="35.33" r="6.84" style="fill:#fee2ac"/><circle cx="994.81" cy="35.19" r="6.84" style="fill:#fee2ac"/><circle cx="962.13" cy="35.71" r="6.84" style="fill:#fee2ac"/><circle cx="1023.42" cy="35.19" r="6.84" style="fill:#fee2ac"/><rect x="597" y="260.2" width="118.19" height="12.25" rx="5.99" style="fill:#fece75;stroke:#fece75;stroke-miterlimit:10;stroke-width:10.891763844906773px"/><rect x="736.3" y="260.2" width="65.87" height="12.25" rx="5.99" style="fill:#fece75;stroke:#fece75;stroke-miterlimit:10;stroke-width:10.891763844906773px"/><rect x="509.3" y="259.68" width="65.87" height="12.25" rx="5.99" style="fill:#fece75;stroke:#fece75;stroke-miterlimit:10;stroke-width:10.891763844906773px"/><rect x="432.3" y="259.68" width="56.4" height="12.25" rx="5.99" style="fill:#fece75;stroke:#fece75;stroke-miterlimit:10;stroke-width:10.891763844906773px"/><rect x="346.27" y="259.68" width="65.87" height="12.25" rx="5.99" style="fill:#fece75;stroke:#fece75;stroke-miterlimit:10;stroke-width:10.891763844906773px"/><circle cx="438.45" cy="265.8" r="6.84" style="fill:#fee2ac"/><circle cx="406.15" cy="265.87" r="6.84" style="fill:#fee2ac"/><circle cx="515.64" cy="265.87" r="6.84" style="fill:#fee2ac"/><circle cx="482.27" cy="265.87" r="6.84" style="fill:#fee2ac"/><circle cx="352.01" cy="266.33" r="6.84" style="fill:#fee2ac"/><circle cx="568.34" cy="265.8" r="6.84" style="fill:#fee2ac"/><circle cx="603.83" cy="265.8" r="6.84" style="fill:#fee2ac"/><circle cx="708.35" cy="265.8" r="6.84" style="fill:#fee2ac"/><circle cx="743.14" cy="266.33" r="6.84" style="fill:#fee2ac"/><circle cx="795.34" cy="265.8" r="6.84" style="fill:#fee2ac"/><rect x="-151.97" y="244.16" width="52.01" height="12.25" rx="5.99" transform="translate(28.07 516.4) rotate(180)" style="fill:#fece75;stroke:#fece75;stroke-miterlimit:10;stroke-width:10.891763844906773px"/><rect x="-79.8" y="244.16" width="127.44" height="12.25" rx="5.99" transform="translate(247.85 516.4) rotate(180)" style="fill:#fece75;stroke:#fece75;stroke-miterlimit:10;stroke-width:10.891763844906773px"/><circle cx="207.42" cy="265.54" r="6.84" style="fill:#fee2ac"/><circle cx="132.85" cy="267.11" r="6.84" style="fill:#fee2ac"/><circle cx="173.87" cy="266.59" r="6.84" style="fill:#fee2ac"/><circle cx="320.81" cy="265.54" r="6.84" style="fill:#fee2ac"/><rect x="824.33" y="260.49" width="118.19" height="12.25" rx="5.99" style="fill:#fece75;stroke:#fece75;stroke-miterlimit:10;stroke-width:10.891763844906773px"/><rect x="961.6" y="260.49" width="40.31" height="12.25" rx="5.99" style="fill:#fece75;stroke:#fece75;stroke-miterlimit:10;stroke-width:10.891763844906773px"/><circle cx="832.1" cy="266.21" r="6.84" style="fill:#fee2ac"/><circle cx="968.51" cy="266.06" r="6.84" style="fill:#fee2ac"/><circle cx="935.83" cy="266.59" r="6.84" style="fill:#fee2ac"/><circle cx="997.11" cy="266.06" r="6.84" style="fill:#fee2ac"/><rect x="568.65" y="160.93" width="118.19" height="12.25" rx="5.99" style="fill:#fece75;stroke:#fece75;stroke-miterlimit:10;stroke-width:10.891763844906773px"/><rect x="707.95" y="160.93" width="65.87" height="12.25" rx="5.99" style="fill:#fece75;stroke:#fece75;stroke-miterlimit:10;stroke-width:10.891763844906773px"/><rect x="480.95" y="160.4" width="65.87" height="12.25" rx="5.99" style="fill:#fece75;stroke:#fece75;stroke-miterlimit:10;stroke-width:10.891763844906773px"/><rect x="403.96" y="160.4" width="56.4" height="12.25" rx="5.99" style="fill:#fece75;stroke:#fece75;stroke-miterlimit:10;stroke-width:10.891763844906773px"/><rect x="317.92" y="160.4" width="65.87" height="12.25" rx="5.99" style="fill:#fece75;stroke:#fece75;stroke-miterlimit:10;stroke-width:10.891763844906773px"/><circle cx="410.1" cy="166.53" r="6.84" style="fill:#fee2ac"/><circle cx="377.8" cy="166.6" r="6.84" style="fill:#fee2ac"/><circle cx="487.29" cy="166.6" r="6.84" style="fill:#fee2ac"/><circle cx="453.92" cy="166.6" r="6.84" style="fill:#fee2ac"/><circle cx="323.66" cy="167.05" r="6.84" style="fill:#fee2ac"/><circle cx="539.99" cy="166.53" r="6.84" style="fill:#fee2ac"/><circle cx="575.49" cy="166.53" r="6.84" style="fill:#fee2ac"/><circle cx="680" cy="166.53" r="6.84" style="fill:#fee2ac"/><circle cx="714.79" cy="167.05" r="6.84" style="fill:#fee2ac"/><circle cx="766.99" cy="166.53" r="6.84" style="fill:#fee2ac"/><rect x="-180.32" y="144.89" width="52.01" height="12.25" rx="5.99" transform="translate(-28.63 317.85) rotate(180)" style="fill:#fece75;stroke:#fece75;stroke-miterlimit:10;stroke-width:10.891763844906773px"/><rect x="-108.15" y="144.89" width="127.44" height="12.25" rx="5.99" transform="translate(191.15 317.85) rotate(180)" style="fill:#fece75;stroke:#fece75;stroke-miterlimit:10;stroke-width:10.891763844906773px"/><circle cx="179.07" cy="166.27" r="6.84" style="fill:#fee2ac"/><circle cx="104.5" cy="167.83" r="6.84" style="fill:#fee2ac"/><circle cx="145.52" cy="167.31" r="6.84" style="fill:#fee2ac"/><circle cx="292.46" cy="166.27" r="6.84" style="fill:#fee2ac"/><rect x="795.99" y="161.22" width="118.19" height="12.25" rx="5.99" style="fill:#fece75;stroke:#fece75;stroke-miterlimit:10;stroke-width:10.891763844906773px"/><rect x="933.25" y="161.22" width="40.31" height="12.25" rx="5.99" style="fill:#fece75;stroke:#fece75;stroke-miterlimit:10;stroke-width:10.891763844906773px"/><circle cx="803.75" cy="166.94" r="6.84" style="fill:#fee2ac"/><circle cx="940.16" cy="166.79" r="6.84" style="fill:#fee2ac"/><circle cx="907.48" cy="167.31" r="6.84" style="fill:#fee2ac"/><circle cx="968.76" cy="166.79" r="6.84" style="fill:#fee2ac"/><rect x="496.63" y="227.18" width="105.73" height="12.25" rx="5.99" style="fill:#fece75;stroke:#fece75;stroke-miterlimit:10;stroke-width:10.891763844906773px"/><rect x="375.14" y="227.18" width="100.29" height="12.25" rx="5.99" style="fill:#fece75;stroke:#fece75;stroke-miterlimit:10;stroke-width:10.891763844906773px"/><circle cx="503.32" cy="233.29" r="6.84" style="fill:#fee2ac"/><circle cx="469.6" cy="233.64" r="6.84" style="fill:#fee2ac"/><rect x="622.16" y="227.52" width="112.74" height="12.25" rx="5.99" style="fill:#fece75;stroke:#fece75;stroke-miterlimit:10;stroke-width:10.891763844906773px"/><circle cx="381.39" cy="233.64" r="6.84" style="fill:#fee2ac"/><circle cx="595.52" cy="233.29" r="6.84" style="fill:#fee2ac"/><circle cx="629.45" cy="233.29" r="6.84" style="fill:#fee2ac"/><circle cx="728.07" cy="233.29" r="6.84" style="fill:#fee2ac"/><rect x="903.18" y="227.39" width="52.01" height="12.25" rx="5.99" style="fill:#fece75;stroke:#fece75;stroke-miterlimit:10;stroke-width:10.891763844906773px"/><rect x="755.57" y="227.39" width="127.44" height="12.25" rx="5.99" style="fill:#fece75;stroke:#fece75;stroke-miterlimit:10;stroke-width:10.891763844906773px"/><circle cx="875.8" cy="234.09" r="6.84" style="fill:#fee2ac"/><circle cx="950.36" cy="232.52" r="6.84" style="fill:#fee2ac"/><circle cx="909.35" cy="233.04" r="6.84" style="fill:#fee2ac"/><circle cx="762.41" cy="234.09" r="6.84" style="fill:#fee2ac"/><rect x="175.47" y="227.47" width="118.19" height="12.25" rx="5.99" style="fill:#fece75;stroke:#fece75;stroke-miterlimit:10;stroke-width:10.891763844906773px"/><rect x="312.73" y="227.47" width="40.31" height="12.25" rx="5.99" style="fill:#fece75;stroke:#fece75;stroke-miterlimit:10;stroke-width:10.891763844906773px"/><circle cx="183.23" cy="233.19" r="6.84" style="fill:#fee2ac"/><circle cx="319.64" cy="233.04" r="6.84" style="fill:#fee2ac"/><circle cx="286.97" cy="233.57" r="6.84" style="fill:#fee2ac"/><circle cx="348.25" cy="233.04" r="6.84" style="fill:#fee2ac"/><rect x="547.38" y="293.22" width="118.19" height="12.25" rx="5.99" style="fill:#fece75;stroke:#fece75;stroke-miterlimit:10;stroke-width:10.891763844906773px"/><rect x="686.69" y="293.22" width="65.87" height="12.25" rx="5.99" style="fill:#fece75;stroke:#fece75;stroke-miterlimit:10;stroke-width:10.891763844906773px"/><rect x="459.68" y="292.7" width="65.87" height="12.25" rx="5.99" style="fill:#fece75;stroke:#fece75;stroke-miterlimit:10;stroke-width:10.891763844906773px"/><rect x="382.69" y="292.7" width="56.4" height="12.25" rx="5.99" style="fill:#fece75;stroke:#fece75;stroke-miterlimit:10;stroke-width:10.891763844906773px"/><rect x="296.66" y="292.7" width="65.87" height="12.25" rx="5.99" style="fill:#fece75;stroke:#fece75;stroke-miterlimit:10;stroke-width:10.891763844906773px"/><circle cx="388.83" cy="298.82" r="6.84" style="fill:#fee2ac"/><circle cx="356.53" cy="298.89" r="6.84" style="fill:#fee2ac"/><circle cx="466.03" cy="298.89" r="6.84" style="fill:#fee2ac"/><circle cx="432.66" cy="298.89" r="6.84" style="fill:#fee2ac"/><circle cx="302.39" cy="299.35" r="6.84" style="fill:#fee2ac"/><circle cx="518.72" cy="298.82" r="6.84" style="fill:#fee2ac"/><circle cx="554.22" cy="298.82" r="6.84" style="fill:#fee2ac"/><circle cx="658.73" cy="298.82" r="6.84" style="fill:#fee2ac"/><circle cx="693.52" cy="299.35" r="6.84" style="fill:#fee2ac"/><circle cx="745.72" cy="298.82" r="6.84" style="fill:#fee2ac"/><rect x="775.15" y="292.99" width="118.19" height="12.25" rx="5.99" style="fill:#fece75;stroke:#fece75;stroke-miterlimit:10;stroke-width:10.891763844906773px"/><rect x="912.41" y="292.99" width="40.31" height="12.25" rx="5.99" style="fill:#fece75;stroke:#fece75;stroke-miterlimit:10;stroke-width:10.891763844906773px"/><circle cx="782.91" cy="298.71" r="6.84" style="fill:#fee2ac"/><circle cx="919.32" cy="298.56" r="6.84" style="fill:#fee2ac"/><circle cx="886.64" cy="299.09" r="6.84" style="fill:#fee2ac"/><circle cx="947.92" cy="298.56" r="6.84" style="fill:#fee2ac"/><rect x="423.89" y="193.95" width="112.74" height="12.25" rx="5.99" style="fill:#fece75;stroke:#fece75;stroke-miterlimit:10;stroke-width:10.891763844906773px"/><circle cx="432.06" cy="199.68" r="6.84" style="fill:#fee2ac"/><circle cx="529.68" cy="200.07" r="6.84" style="fill:#fee2ac"/><rect x="351.61" y="194.16" width="52.01" height="12.25" rx="5.99" style="fill:#fece75;stroke:#fece75;stroke-miterlimit:10;stroke-width:10.891763844906773px"/><rect x="204" y="194.16" width="127.44" height="12.25" rx="5.99" style="fill:#fece75;stroke:#fece75;stroke-miterlimit:10;stroke-width:10.891763844906773px"/><circle cx="324.23" cy="200.86" r="6.84" style="fill:#fee2ac"/><circle cx="398.8" cy="199.29" r="6.84" style="fill:#fee2ac"/><circle cx="357.78" cy="199.81" r="6.84" style="fill:#fee2ac"/><circle cx="210.84" cy="200.86" r="6.84" style="fill:#fee2ac"/><rect x="558.58" y="194.45" width="118.19" height="12.25" rx="5.99" style="fill:#fece75;stroke:#fece75;stroke-miterlimit:10;stroke-width:10.891763844906773px"/><rect x="695.84" y="194.45" width="40.31" height="12.25" rx="5.99" style="fill:#fece75;stroke:#fece75;stroke-miterlimit:10;stroke-width:10.891763844906773px"/><circle cx="566.34" cy="200.17" r="6.84" style="fill:#fee2ac"/><circle cx="702.75" cy="200.02" r="6.84" style="fill:#fee2ac"/><circle cx="670.08" cy="200.54" r="6.84" style="fill:#fee2ac"/><circle cx="731.36" cy="200.02" r="6.84" style="fill:#fee2ac"/><rect x="479.21" y="178.12" width="52.01" height="12.25" rx="5.99" transform="translate(1290.43 384.32) rotate(180)" style="fill:#fece75;stroke:#fece75;stroke-miterlimit:10;stroke-width:10.891763844906773px"/><rect x="551.38" y="178.12" width="127.44" height="12.25" rx="5.99" transform="translate(1510.2 384.32) rotate(180)" style="fill:#fece75;stroke:#fece75;stroke-miterlimit:10;stroke-width:10.891763844906773px"/><circle cx="838.59" cy="199.5" r="6.84" style="fill:#fee2ac"/><circle cx="764.03" cy="201.07" r="6.84" style="fill:#fee2ac"/><circle cx="805.05" cy="200.54" r="6.84" style="fill:#fee2ac"/><circle cx="951.99" cy="199.5" r="6.84" style="fill:#fee2ac"/><rect x="303.33" y="690.15" width="105.73" height="12.25" rx="5.99" style="fill:#fece75;stroke:#fece75;stroke-miterlimit:10;stroke-width:10.891763844906773px"/><rect x="181.84" y="690.15" width="100.29" height="12.25" rx="5.99" style="fill:#fece75;stroke:#fece75;stroke-miterlimit:10;stroke-width:10.891763844906773px"/><circle cx="310.02" cy="696.26" r="6.84" style="fill:#fee2ac"/><circle cx="276.3" cy="696.61" r="6.84" style="fill:#fee2ac"/><rect x="428.86" y="690.48" width="112.74" height="12.25" rx="5.99" style="fill:#fece75;stroke:#fece75;stroke-miterlimit:10;stroke-width:10.891763844906773px"/><circle cx="188.1" cy="696.61" r="6.84" style="fill:#fee2ac"/><circle cx="402.22" cy="696.26" r="6.84" style="fill:#fee2ac"/><circle cx="436.15" cy="696.26" r="6.84" style="fill:#fee2ac"/><circle cx="534.77" cy="696.26" r="6.84" style="fill:#fee2ac"/><rect x="483.9" y="674.27" width="52.01" height="12.25" rx="5.99" transform="translate(1299.81 1376.62) rotate(180)" style="fill:#fece75;stroke:#fece75;stroke-miterlimit:10;stroke-width:10.891763844906773px"/><rect x="556.07" y="674.27" width="127.44" height="12.25" rx="5.99" transform="translate(1519.58 1376.62) rotate(180)" style="fill:#fece75;stroke:#fece75;stroke-miterlimit:10;stroke-width:10.891763844906773px"/><circle cx="843.28" cy="695.65" r="6.84" style="fill:#fee2ac"/><circle cx="770.73" cy="696.17" r="6.84" style="fill:#fee2ac"/><circle cx="809.74" cy="696.7" r="6.84" style="fill:#fee2ac"/><circle cx="956.68" cy="695.65" r="6.84" style="fill:#fee2ac"/><rect x="563.69" y="690.6" width="118.19" height="12.25" rx="5.99" style="fill:#fece75;stroke:#fece75;stroke-miterlimit:10;stroke-width:10.891763844906773px"/><rect x="700.95" y="690.6" width="40.31" height="12.25" rx="5.99" style="fill:#fece75;stroke:#fece75;stroke-miterlimit:10;stroke-width:10.891763844906773px"/><circle cx="571.45" cy="696.32" r="6.84" style="fill:#fee2ac"/><circle cx="707.86" cy="696.17" r="6.84" style="fill:#fee2ac"/><circle cx="675.19" cy="696.7" r="6.84" style="fill:#fee2ac"/><circle cx="736.47" cy="696.17" r="6.84" style="fill:#fee2ac"/><rect x="256.44" y="127.82" width="118.19" height="12.25" rx="5.99" style="fill:#fece75;stroke:#fece75;stroke-miterlimit:10;stroke-width:10.891763844906773px"/><rect x="395.75" y="127.82" width="65.87" height="12.25" rx="5.99" style="fill:#fece75;stroke:#fece75;stroke-miterlimit:10;stroke-width:10.891763844906773px"/><circle cx="367.68" cy="133.83" r="6.84" style="fill:#fee2ac"/><circle cx="402.87" cy="133.51" r="6.84" style="fill:#fee2ac"/><circle cx="457.27" cy="134.03" r="6.84" style="fill:#fee2ac"/><circle cx="264.52" cy="134.03" r="6.84" style="fill:#fee2ac"/><rect x="646.18" y="127.91" width="65.87" height="12.25" rx="5.99" style="fill:#fece75;stroke:#fece75;stroke-miterlimit:10;stroke-width:10.891763844906773px"/><rect x="569.19" y="127.91" width="56.4" height="12.25" rx="5.99" style="fill:#fece75;stroke:#fece75;stroke-miterlimit:10;stroke-width:10.891763844906773px"/><rect x="483.16" y="127.91" width="65.87" height="12.25" rx="5.99" style="fill:#fece75;stroke:#fece75;stroke-miterlimit:10;stroke-width:10.891763844906773px"/><circle cx="489.99" cy="134.03" r="6.84" style="fill:#fee2ac"/><circle cx="542.51" cy="133.51" r="6.84" style="fill:#fee2ac"/><circle cx="576.03" cy="133.51" r="6.84" style="fill:#fee2ac"/><circle cx="618.75" cy="133.51" r="6.84" style="fill:#fee2ac"/><circle cx="653.02" cy="133.51" r="6.84" style="fill:#fee2ac"/><circle cx="705.22" cy="134.03" r="6.84" style="fill:#fee2ac"/><rect x="877.03" y="128.12" width="52.01" height="12.25" rx="5.99" style="fill:#fece75;stroke:#fece75;stroke-miterlimit:10;stroke-width:10.891763844906773px"/><rect x="729.42" y="128.12" width="127.44" height="12.25" rx="5.99" style="fill:#fece75;stroke:#fece75;stroke-miterlimit:10;stroke-width:10.891763844906773px"/><circle cx="849.65" cy="134.81" r="6.84" style="fill:#fee2ac"/><circle cx="924.21" cy="133.25" r="6.84" style="fill:#fee2ac"/><circle cx="883.2" cy="133.77" r="6.84" style="fill:#fee2ac"/><circle cx="736.26" cy="134.81" r="6.84" style="fill:#fee2ac"/><rect x="708.93" y="94.89" width="118.19" height="12.25" rx="5.99" style="fill:#fece75;stroke:#fece75;stroke-miterlimit:10;stroke-width:10.891763844906773px"/><rect x="848.23" y="94.89" width="65.87" height="12.25" rx="5.99" style="fill:#fece75;stroke:#fece75;stroke-miterlimit:10;stroke-width:10.891763844906773px"/><rect x="621.23" y="94.36" width="65.87" height="12.25" rx="5.99" style="fill:#fece75;stroke:#fece75;stroke-miterlimit:10;stroke-width:10.891763844906773px"/><rect x="544.23" y="94.36" width="56.4" height="12.25" rx="5.99" style="fill:#fece75;stroke:#fece75;stroke-miterlimit:10;stroke-width:10.891763844906773px"/><rect x="458.2" y="94.36" width="65.87" height="12.25" rx="5.99" style="fill:#fece75;stroke:#fece75;stroke-miterlimit:10;stroke-width:10.891763844906773px"/><circle cx="550.37" cy="100.49" r="6.84" style="fill:#fee2ac"/><circle cx="518.08" cy="100.55" r="6.84" style="fill:#fee2ac"/><circle cx="627.57" cy="100.55" r="6.84" style="fill:#fee2ac"/><circle cx="594.2" cy="100.55" r="6.84" style="fill:#fee2ac"/><circle cx="463.94" cy="101.01" r="6.84" style="fill:#fee2ac"/><circle cx="680.26" cy="100.49" r="6.84" style="fill:#fee2ac"/><circle cx="715.76" cy="100.49" r="6.84" style="fill:#fee2ac"/><circle cx="820.28" cy="100.49" r="6.84" style="fill:#fee2ac"/><circle cx="855.07" cy="101.01" r="6.84" style="fill:#fee2ac"/><circle cx="907.27" cy="100.49" r="6.84" style="fill:#fee2ac"/><rect x="-40.04" y="78.85" width="52.01" height="12.25" rx="5.99" transform="translate(251.93 185.77) rotate(180)" style="fill:#fece75;stroke:#fece75;stroke-miterlimit:10;stroke-width:10.891763844906773px"/><rect x="32.13" y="78.85" width="127.44" height="12.25" rx="5.99" transform="translate(471.71 185.77) rotate(180)" style="fill:#fece75;stroke:#fece75;stroke-miterlimit:10;stroke-width:10.891763844906773px"/><circle cx="319.34" cy="100.23" r="6.84" style="fill:#fee2ac"/><circle cx="244.78" cy="101.79" r="6.84" style="fill:#fee2ac"/><circle cx="285.8" cy="101.27" r="6.84" style="fill:#fee2ac"/><circle cx="432.74" cy="100.23" r="6.84" style="fill:#fee2ac"/><rect x="453.7" y="62.11" width="118.19" height="12.25" rx="5.99" style="fill:#fece75;stroke:#fece75;stroke-miterlimit:10;stroke-width:10.891763844906773px"/><rect x="590.96" y="62.11" width="40.31" height="12.25" rx="5.99" style="fill:#fece75;stroke:#fece75;stroke-miterlimit:10;stroke-width:10.891763844906773px"/><rect x="393.91" y="62.11" width="41.54" height="12.25" rx="5.99" style="fill:#fece75;stroke:#fece75;stroke-miterlimit:10;stroke-width:10.891763844906773px"/><circle cx="461.47" cy="67.83" r="6.84" style="fill:#fee2ac"/><circle cx="597.87" cy="67.69" r="6.84" style="fill:#fee2ac"/><circle cx="428.76" cy="68.04" r="6.84" style="fill:#fee2ac"/><circle cx="565.2" cy="68.21" r="6.84" style="fill:#fee2ac"/><circle cx="399.76" cy="68.24" r="6.84" style="fill:#fee2ac"/><circle cx="626.48" cy="67.69" r="6.84" style="fill:#fee2ac"/><rect x="775.11" y="62.31" width="105.73" height="12.25" rx="5.99" style="fill:#fece75;stroke:#fece75;stroke-miterlimit:10;stroke-width:10.891763844906773px"/><rect x="653.62" y="62.31" width="100.29" height="12.25" rx="5.99" style="fill:#fece75;stroke:#fece75;stroke-miterlimit:10;stroke-width:10.891763844906773px"/><circle cx="781.8" cy="68.42" r="6.84" style="fill:#fee2ac"/><circle cx="748.08" cy="68.77" r="6.84" style="fill:#fee2ac"/><rect x="900.64" y="62.65" width="112.74" height="12.25" rx="5.99" style="fill:#fece75;stroke:#fece75;stroke-miterlimit:10;stroke-width:10.891763844906773px"/><circle cx="659.87" cy="68.77" r="6.84" style="fill:#fee2ac"/><circle cx="874" cy="68.42" r="6.84" style="fill:#fee2ac"/><circle cx="907.93" cy="68.42" r="6.84" style="fill:#fee2ac"/><circle cx="1006.55" cy="68.42" r="6.84" style="fill:#fee2ac"/><rect x="194.28" y="62.59" width="118.19" height="12.25" rx="5.99" style="fill:#fece75;stroke:#fece75;stroke-miterlimit:10;stroke-width:10.891763844906773px"/><rect x="331.55" y="62.59" width="40.31" height="12.25" rx="5.99" style="fill:#fece75;stroke:#fece75;stroke-miterlimit:10;stroke-width:10.891763844906773px"/><circle cx="202.05" cy="68.31" r="6.84" style="fill:#fee2ac"/><circle cx="338.46" cy="68.16" r="6.84" style="fill:#fee2ac"/><circle cx="305.78" cy="68.69" r="6.84" style="fill:#fee2ac"/><circle cx="367.06" cy="68.16" r="6.84" style="fill:#fee2ac"/><rect id="_Slice_" data-name="&lt;Slice&gt;" width="280" height="744" style="fill:none"/></g></g></svg>